<svg width="30" height="30" fill="none" xmlns="http://www.w3.org/2000/svg"><path d="M21.565 21.103c.12.449.757.449.877 0l3.46-12.924A.937.937 0 0 0 24.996 7h-2.133a.936.936 0 0 0-.904.694l-1.95 7.288a.598.598 0 0 0 0 .309l1.555 5.812ZM9.475 14.973a.597.597 0 0 1 0 .308l-1.556 5.812c-.12.45-.756.45-.877 0L3.585 8.18A.937.937 0 0 1 4.49 7h2.133c.424 0 .795.285.905.694l1.948 7.279ZM12.391 23.944a.905.905 0 0 1-.873.672H9.335a.907.907 0 0 1-.873-1.142l4.2-15.738A.99.99 0 0 1 13.617 7h2.54a.99.99 0 0 1 .954.736l4.2 15.738a.907.907 0 0 1-.873 1.142h-2.182a.905.905 0 0 1-.873-.672l-2.073-7.767c-.116-.434-.73-.434-.846 0l-2.073 7.767Z" fill="#fff"/><path d="M14.12 22.307c-.156 0-.27-.141-.23-.285l.767-2.724c.063-.224.396-.224.46 0l.766 2.724c.04.144-.073.285-.23.285H14.12Z" fill="#fff"/></svg>