<svg width="30" height="30" fill="none" xmlns="http://www.w3.org/2000/svg"><path d="M23.124 7.505h-1.238c-.933 0-1.689.756-1.689 1.688v4.22c0 .932-.756 1.688-1.688 1.688h-2.093" stroke="#1AC7FE"/><path d="M23.124 22.64h-1.238a1.689 1.689 0 0 1-1.689-1.688v-4.219c0-.933-.756-1.689-1.688-1.689h-2.093M9.78 16.144a2.262 2.262 0 1 0 0-4.525 2.262 2.262 0 0 0 0 4.525ZM13.255 20.611v-.456a3.546 3.546 0 0 0-3.557-3.558 3.56 3.56 0 0 0-3.558 3.558v.456" stroke="#fff"/><circle cx="9.708" cy="14.902" r="6.708" stroke="#fff"/><circle cx="25.18" cy="7.539" stroke="#1AC7FE" r="1.914"/><circle cx="1.914" cy="1.914" r="1.914" transform="matrix(1 0 0 -1 23.267 24.52)" stroke="#fff"/></svg>