<svg width="170" height="171" fill="none" xmlns="http://www.w3.org/2000/svg"><g clip-path="url('#clip0_2567_86221')"><ellipse cx="126.5" cy="88.89" rx="116.5" ry="95.5" stroke="#9CBDFA" stroke-width="1.023" stroke-linecap="round" stroke-linejoin="round" stroke-dasharray="1.25 2.98"/><ellipse cx="152" cy="85.39" rx="50" ry="41" stroke="#9CBDFA" stroke-width="1.023" stroke-linecap="round" stroke-linejoin="round" stroke-dasharray="1.25 2.98"/><ellipse cx="128.5" cy="87.39" rx="82.5" ry="73" stroke="#9CBDFA" stroke-width="1.036" stroke-linecap="round" stroke-linejoin="round" stroke-dasharray="1.27 3.02"/><g filter="url('#filter0_bd_2567_86221')"><ellipse cx="107.175" cy="91.106" rx="37.175" ry="36.716" fill="url('#paint0_linear_2567_86221')"/></g><g opacity=".35" filter="url('#filter1_d_2567_86221')"><circle cx="107.232" cy="90.89" fill="#fff" r="30.66"/></g><path d="m122.401 81.89-15.051-7.432-15.051 7.433m30.102 0-15.051 7.432m15.051-7.432v18.581l-15.051 7.433M92.299 81.891l15.051 7.432m-15.051-7.432v18.581l15.051 7.433m0-18.582v18.582" stroke="url('#paint1_linear_2567_86221')" stroke-width="2.45" stroke-linecap="round" stroke-linejoin="round"/><g filter="url('#filter2_b_2567_86221')"><rect x="3" y="41.39" width="32" height="32" rx="16" fill="#fff"/><path d="m19 52.505-2.998 4.975L19 56.118v-3.613Z" fill="#8A92B2"/><path d="m19 56.118-2.998 1.362L19 59.254v-3.135ZM21.999 57.48 19 52.505v3.613l2.999 1.362Z" fill="#62688F"/><path d="m19 59.253 2.999-1.773L19 56.118v3.135Z" fill="#454A75"/><path d="M16.002 58.05 19 62.274v-2.454l-2.998-1.772Z" fill="#8A92B2"/><path d="M19 59.821v2.454l3-4.226-3 1.772Z" fill="#62688F"/><rect x="3.625" y="42.015" width="30.75" height="30.75" rx="15.375" stroke="url('#paint2_linear_2567_86221')" stroke-width="1.25"/><rect x="3.625" y="42.015" width="30.75" height="30.75" rx="15.375" stroke="url('#paint3_linear_2567_86221')" stroke-width="1.25"/></g><g filter="url('#filter3_b_2567_86221')"><rect x="19" y="122.39" width="32" height="32" rx="16" fill="#fff"/><path d="M37.185 137.075h-.707a.31.31 0 0 1-.214-.093l-.286-.321a.234.234 0 0 0-.321-.022l-.022.022-.242.278a.422.422 0 0 1-.322.143h-3.864c-.107.314-.178.65-.207.986h3.657a.25.25 0 0 0 .171-.072l.343-.357a.231.231 0 0 1 .164-.071h.015c.064 0 .128.028.171.078l.286.322a.29.29 0 0 0 .214.1H39a4.175 4.175 0 0 0-.207-.986h-1.607v-.007Zm-2.342 1.971-.286-.321a.234.234 0 0 0-.322-.022l-.02.022-.25.278a.407.407 0 0 1-.315.143h-2.593a4.2 4.2 0 0 0 .329 1h1.821a.262.262 0 0 0 .171-.071l.343-.357a.232.232 0 0 1 .165-.072h.014c.064 0 .128.029.171.079l.286.321c.057.065.136.1.214.1h4.043c.15-.314.264-.65.328-1h-3.885a.266.266 0 0 1-.214-.1Zm1.4-3.114.342-.357a.232.232 0 0 1 .165-.072h.014a.25.25 0 0 1 .171.072l.286.321a.28.28 0 0 0 .214.093h.772a4.037 4.037 0 0 0-5.643-.786 4.113 4.113 0 0 0-.785.786h4.292a.184.184 0 0 0 .172-.057Zm-2.765 5.2a.286.286 0 0 1-.214-.093l-.286-.321a.227.227 0 0 0-.321-.015l-.014.015-.25.278a.407.407 0 0 1-.315.143h-.014c1.507 1.614 4.057 1.693 5.678.172.065-.058.122-.122.186-.186h-4.45v.007Z" fill="#000"/><rect x="19.625" y="123.015" width="30.75" height="30.75" rx="15.375" stroke="url('#paint4_linear_2567_86221')" stroke-width="1.25"/><rect x="19.625" y="123.015" width="30.75" height="30.75" rx="15.375" stroke="url('#paint5_linear_2567_86221')" stroke-width="1.25"/></g><g filter="url('#filter4_b_2567_86221')"><rect x="92" y="140.39" width="32" height="32" rx="16" fill="#fff"/><path d="M111.666 155.345c.16-1.121-.656-1.724-1.771-2.126l.362-1.518-.884-.23-.352 1.478c-.232-.06-.471-.118-.708-.174l.355-1.488-.883-.23-.362 1.517c-.192-.046-.381-.091-.564-.138l.001-.005-1.219-.318-.235.987s.656.157.642.167c.358.093.422.341.412.537l-.413 1.73a.584.584 0 0 1 .092.031l-.093-.025-.578 2.423c-.044.114-.155.285-.405.22.009.013-.642-.168-.642-.168l-.439 1.058 1.15.3c.214.056.424.115.63.17l-.366 1.536.883.23.362-1.519c.241.068.475.131.704.191l-.361 1.512.884.23.365-1.533c1.507.299 2.64.178 3.117-1.247.384-1.148-.019-1.81-.812-2.241.577-.14 1.012-.537 1.128-1.357Zm-2.019 2.961c-.273 1.147-2.12.527-2.719.371l.485-2.034c.599.156 2.52.466 2.234 1.663Zm.274-2.978c-.25 1.044-1.787.514-2.286.384l.44-1.846c.499.13 2.105.373 1.846 1.462Z" fill="#F7931A"/><rect x="92.625" y="141.015" width="30.75" height="30.75" rx="15.375" stroke="url('#paint6_linear_2567_86221')" stroke-width="1.25"/><rect x="92.625" y="141.015" width="30.75" height="30.75" rx="15.375" stroke="url('#paint7_linear_2567_86221')" stroke-width="1.25"/></g><g filter="url('#filter5_b_2567_86221')"><rect x="77" y="5.39" width="32" height="32" rx="16" fill="#fff"/><path d="m97.136 23.47-1.418 1.52a.327.327 0 0 1-.24.104h-6.72a.165.165 0 0 1-.12-.276l1.416-1.52a.328.328 0 0 1 .24-.105h6.72a.165.165 0 0 1 .165.192.163.163 0 0 1-.043.085Zm-1.418-3.062a.33.33 0 0 0-.24-.105h-6.72a.165.165 0 0 0-.12.277l1.416 1.52a.33.33 0 0 0 .24.106h6.72a.164.164 0 0 0 .12-.277l-1.416-1.521Zm-6.96-1.092h6.72a.327.327 0 0 0 .24-.105l1.418-1.52a.164.164 0 0 0-.122-.276h-6.72a.326.326 0 0 0-.24.104l-1.416 1.52a.164.164 0 0 0 .03.25.166.166 0 0 0 .09.027Z" fill="url('#paint8_linear_2567_86221')"/><rect x="77.625" y="6.015" width="30.75" height="30.75" rx="15.375" stroke="url('#paint9_linear_2567_86221')" stroke-width="1.25"/><rect x="77.625" y="6.015" width="30.75" height="30.75" rx="15.375" stroke="url('#paint10_linear_2567_86221')" stroke-width="1.25"/></g><g filter="url('#filter6_b_2567_86221')"><rect x="147" y="30.39" width="32" height="32" rx="16" fill="#fff"/><path d="M158.5 42.075c0-.379.307-.685.685-.685h7.63c.378 0 .685.306.685.685v1.592a.685.685 0 0 1-.685.685h-7.63a.685.685 0 0 1-.685-.685v-1.592Z" stroke="url('#paint11_linear_2567_86221')" stroke-width=".6"/><circle cx="159.819" cy="42.822" r=".44" fill="#5CBAFB"/><path d="M158.5 46.123c0-.378.307-.684.685-.684h7.63c.378 0 .685.306.685.684V47.2a.685.685 0 0 1-.685.685h-7.63a.685.685 0 0 1-.685-.685v-1.076Z" stroke="url('#paint12_linear_2567_86221')" stroke-width=".6"/><circle cx="159.819" cy="46.661" r=".44" fill="#5CBAFB"/><g opacity=".5"><path d="M158.5 49.656c0-.378.307-.684.685-.684h7.63c.378 0 .685.306.685.684v1.076a.685.685 0 0 1-.685.685h-7.63a.685.685 0 0 1-.685-.685v-1.076Z" stroke="url('#paint13_linear_2567_86221')" stroke-width=".6"/><circle cx="159.819" cy="50.194" r=".44" fill="#5CBAFB"/></g><rect x="147.625" y="31.015" width="30.75" height="30.75" rx="15.375" stroke="url('#paint14_linear_2567_86221')" stroke-width="1.25"/><rect x="147.625" y="31.015" width="30.75" height="30.75" rx="15.375" stroke="url('#paint15_linear_2567_86221')" stroke-width="1.25"/></g></g><defs><linearGradient id="paint0_linear_2567_86221" x1="141.138" y1="137.461" x2="140.844" y2="54.282" gradientUnits="userSpaceOnUse"><stop stop-color="#D7DEFB"/><stop offset=".792" stop-color="#fff"/></linearGradient><linearGradient id="paint1_linear_2567_86221" x1="80.668" y1="83.498" x2="112.183" y2="134.868" gradientUnits="userSpaceOnUse"><stop stop-color="#66D4F7"/><stop offset=".323" stop-color="#4D92FF"/><stop offset="1" stop-color="#BB65FF"/></linearGradient><linearGradient id="paint2_linear_2567_86221" x1="1.916" y1="64.589" x2="45.332" y2="67.795" gradientUnits="userSpaceOnUse"><stop stop-color="#66D4F7"/><stop offset=".323" stop-color="#4D92FF"/><stop offset="1" stop-color="#BB65FF"/></linearGradient><linearGradient id="paint3_linear_2567_86221" x1="11.118" y1="32.968" x2="30.241" y2="84.053" gradientUnits="userSpaceOnUse"><stop stop-color="#66D4F7"/><stop offset=".323" stop-color="#4D92FF"/><stop offset="1" stop-color="#BB65FF"/></linearGradient><linearGradient id="paint4_linear_2567_86221" x1="17.916" y1="145.589" x2="61.332" y2="148.795" gradientUnits="userSpaceOnUse"><stop stop-color="#66D4F7"/><stop offset=".323" stop-color="#4D92FF"/><stop offset="1" stop-color="#BB65FF"/></linearGradient><linearGradient id="paint5_linear_2567_86221" x1="27.118" y1="113.968" x2="46.241" y2="165.053" gradientUnits="userSpaceOnUse"><stop stop-color="#66D4F7"/><stop offset=".323" stop-color="#4D92FF"/><stop offset="1" stop-color="#BB65FF"/></linearGradient><linearGradient id="paint6_linear_2567_86221" x1="90.916" y1="163.589" x2="134.332" y2="166.795" gradientUnits="userSpaceOnUse"><stop stop-color="#66D4F7"/><stop offset=".323" stop-color="#4D92FF"/><stop offset="1" stop-color="#BB65FF"/></linearGradient><linearGradient id="paint7_linear_2567_86221" x1="100.118" y1="131.968" x2="119.241" y2="183.053" gradientUnits="userSpaceOnUse"><stop stop-color="#66D4F7"/><stop offset=".323" stop-color="#4D92FF"/><stop offset="1" stop-color="#BB65FF"/></linearGradient><linearGradient id="paint8_linear_2567_86221" x1="89.319" y1="25.278" x2="96.365" y2="17.334" gradientUnits="userSpaceOnUse"><stop offset=".08" stop-color="#9945FF"/><stop offset=".3" stop-color="#8752F3"/><stop offset=".5" stop-color="#5497D5"/><stop offset=".6" stop-color="#43B4CA"/><stop offset=".72" stop-color="#28E0B9"/><stop offset=".97" stop-color="#19FB9B"/></linearGradient><linearGradient id="paint9_linear_2567_86221" x1="75.916" y1="28.589" x2="119.332" y2="31.795" gradientUnits="userSpaceOnUse"><stop stop-color="#66D4F7"/><stop offset=".323" stop-color="#4D92FF"/><stop offset="1" stop-color="#BB65FF"/></linearGradient><linearGradient id="paint10_linear_2567_86221" x1="85.118" y1="-3.032" x2="104.241" y2="48.053" gradientUnits="userSpaceOnUse"><stop stop-color="#66D4F7"/><stop offset=".323" stop-color="#4D92FF"/><stop offset="1" stop-color="#BB65FF"/></linearGradient><linearGradient id="paint11_linear_2567_86221" x1="158.5" y1="42.871" x2="167.5" y2="42.871" gradientUnits="userSpaceOnUse"><stop stop-color="#66D4F7"/><stop offset=".323" stop-color="#4D92FF"/><stop offset="1" stop-color="#BB65FF"/></linearGradient><linearGradient id="paint12_linear_2567_86221" x1="158.5" y1="46.661" x2="167.5" y2="46.661" gradientUnits="userSpaceOnUse"><stop stop-color="#66D4F7"/><stop offset=".323" stop-color="#4D92FF"/><stop offset="1" stop-color="#BB65FF"/></linearGradient><linearGradient id="paint13_linear_2567_86221" x1="158.5" y1="50.194" x2="167.5" y2="50.194" gradientUnits="userSpaceOnUse"><stop stop-color="#66D4F7"/><stop offset=".323" stop-color="#4D92FF"/><stop offset="1" stop-color="#BB65FF"/></linearGradient><linearGradient id="paint14_linear_2567_86221" x1="145.916" y1="53.589" x2="189.332" y2="56.795" gradientUnits="userSpaceOnUse"><stop stop-color="#66D4F7"/><stop offset=".323" stop-color="#4D92FF"/><stop offset="1" stop-color="#BB65FF"/></linearGradient><linearGradient id="paint15_linear_2567_86221" x1="155.118" y1="21.968" x2="174.241" y2="73.053" gradientUnits="userSpaceOnUse"><stop stop-color="#66D4F7"/><stop offset=".323" stop-color="#4D92FF"/><stop offset="1" stop-color="#BB65FF"/></linearGradient><filter id="filter0_bd_2567_86221" x="28.834" y="13.224" width="156.683" height="155.765" filterUnits="userSpaceOnUse" color-interpolation-filters="sRGB"><feFlood flood-opacity="0" result="BackgroundImageFix"/><feGaussianBlur in="BackgroundImageFix" stdDeviation="20.583"/><feComposite in2="SourceAlpha" operator="in" result="effect1_backgroundBlur_2567_86221"/><feColorMatrix in="SourceAlpha" values="0 0 0 0 0 0 0 0 0 0 0 0 0 0 0 0 0 0 127 0" result="hardAlpha"/><feOffset dx=".858" dy="3.43"/><feGaussianBlur stdDeviation="4.288"/><feComposite in2="hardAlpha" operator="out"/><feColorMatrix values="0 0 0 0 0.393125 0 0 0 0 0.438812 0 0 0 0 0.85 0 0 0 0.25 0"/><feBlend in2="effect1_backgroundBlur_2567_86221" result="effect2_dropShadow_2567_86221"/><feBlend in="SourceGraphic" in2="effect2_dropShadow_2567_86221" result="shape"/></filter><filter id="filter1_d_2567_86221" x="72.488" y="57.78" width="69.488" height="69.488" filterUnits="userSpaceOnUse" color-interpolation-filters="sRGB"><feFlood flood-opacity="0" result="BackgroundImageFix"/><feColorMatrix in="SourceAlpha" values="0 0 0 0 0 0 0 0 0 0 0 0 0 0 0 0 0 0 127 0" result="hardAlpha"/><feOffset dy="1.634"/><feGaussianBlur stdDeviation="2.042"/><feComposite in2="hardAlpha" operator="out"/><feColorMatrix values="0 0 0 0 0.392157 0 0 0 0 0.439216 0 0 0 0 0.85098 0 0 0 0.15 0"/><feBlend in2="BackgroundImageFix" result="effect1_dropShadow_2567_86221"/><feBlend in="SourceGraphic" in2="effect1_dropShadow_2567_86221" result="shape"/></filter><filter id="filter2_b_2567_86221" x="-4.281" y="34.109" width="46.562" height="46.562" filterUnits="userSpaceOnUse" color-interpolation-filters="sRGB"><feFlood flood-opacity="0" result="BackgroundImageFix"/><feGaussianBlur in="BackgroundImageFix" stdDeviation="3.641"/><feComposite in2="SourceAlpha" operator="in" result="effect1_backgroundBlur_2567_86221"/><feBlend in="SourceGraphic" in2="effect1_backgroundBlur_2567_86221" result="shape"/></filter><filter id="filter3_b_2567_86221" x="11.719" y="115.109" width="46.562" height="46.562" filterUnits="userSpaceOnUse" color-interpolation-filters="sRGB"><feFlood flood-opacity="0" result="BackgroundImageFix"/><feGaussianBlur in="BackgroundImageFix" stdDeviation="3.641"/><feComposite in2="SourceAlpha" operator="in" result="effect1_backgroundBlur_2567_86221"/><feBlend in="SourceGraphic" in2="effect1_backgroundBlur_2567_86221" result="shape"/></filter><filter id="filter4_b_2567_86221" x="84.719" y="133.109" width="46.562" height="46.562" filterUnits="userSpaceOnUse" color-interpolation-filters="sRGB"><feFlood flood-opacity="0" result="BackgroundImageFix"/><feGaussianBlur in="BackgroundImageFix" stdDeviation="3.641"/><feComposite in2="SourceAlpha" operator="in" result="effect1_backgroundBlur_2567_86221"/><feBlend in="SourceGraphic" in2="effect1_backgroundBlur_2567_86221" result="shape"/></filter><filter id="filter5_b_2567_86221" x="69.719" y="-1.891" width="46.562" height="46.562" filterUnits="userSpaceOnUse" color-interpolation-filters="sRGB"><feFlood flood-opacity="0" result="BackgroundImageFix"/><feGaussianBlur in="BackgroundImageFix" stdDeviation="3.641"/><feComposite in2="SourceAlpha" operator="in" result="effect1_backgroundBlur_2567_86221"/><feBlend in="SourceGraphic" in2="effect1_backgroundBlur_2567_86221" result="shape"/></filter><filter id="filter6_b_2567_86221" x="139.719" y="23.109" width="46.562" height="46.562" filterUnits="userSpaceOnUse" color-interpolation-filters="sRGB"><feFlood flood-opacity="0" result="BackgroundImageFix"/><feGaussianBlur in="BackgroundImageFix" stdDeviation="3.641"/><feComposite in2="SourceAlpha" operator="in" result="effect1_backgroundBlur_2567_86221"/><feBlend in="SourceGraphic" in2="effect1_backgroundBlur_2567_86221" result="shape"/></filter><clipPath id="clip0_2567_86221"><path fill="#fff" transform="translate(0 .39)" d="M0 0h170v170H0z"/></clipPath></defs></svg>