<svg width="30" height="30" fill="none" xmlns="http://www.w3.org/2000/svg"><path d="M9.444 25A4.445 4.445 0 0 1 5 20.556V7.222A2.222 2.222 0 0 1 7.222 5h4.445a2.222 2.222 0 0 1 2.222 2.222v13.334A4.445 4.445 0 0 1 9.444 25Zm0 0h13.334A2.222 2.222 0 0 0 25 22.778v-4.445a2.222 2.222 0 0 0-2.222-2.222h-2.604m-10.73 4.445h.012" stroke="#1AC7FE" stroke-linecap="round" stroke-linejoin="round"/><path d="m12.587 23.698 9.428-9.428a2.222 2.222 0 0 0 0-3.142l-3.143-3.143a2.222 2.222 0 0 0-3.142 0l-.92.92" stroke="#0364FF" stroke-linecap="round" stroke-linejoin="round"/></svg>