<svg width="30" height="31" fill="none" xmlns="http://www.w3.org/2000/svg"><path d="M25.396 5.357a24.74 24.74 0 0 0-6.106-1.894.093.093 0 0 0-.098.047 17.22 17.22 0 0 0-.76 1.562 22.84 22.84 0 0 0-6.86 0 15.805 15.805 0 0 0-.771-1.562.096.096 0 0 0-.098-.047 24.67 24.67 0 0 0-6.107 1.894.087.087 0 0 0-.04.035C.666 11.202-.399 16.87.124 22.467a.103.103 0 0 0 .039.07 24.874 24.874 0 0 0 7.491 3.787.097.097 0 0 0 .105-.034 17.779 17.779 0 0 0 1.533-2.493.095.095 0 0 0-.052-.132 16.386 16.386 0 0 1-2.34-1.116.096.096 0 0 1-.01-.159c.157-.118.315-.24.465-.364a.093.093 0 0 1 .097-.013c4.91 2.241 10.225 2.241 15.077 0a.092.092 0 0 1 .098.011c.15.124.307.248.466.366.054.04.05.125-.009.16-.747.436-1.524.805-2.34 1.114a.096.096 0 0 0-.052.133c.45.873.965 1.704 1.532 2.492a.095.095 0 0 0 .105.035 24.791 24.791 0 0 0 7.503-3.786.096.096 0 0 0 .039-.07c.625-6.47-1.048-12.092-4.436-17.075a.077.077 0 0 0-.039-.036ZM10.025 19.06c-1.478 0-2.696-1.357-2.696-3.024 0-1.666 1.194-3.023 2.696-3.023 1.514 0 2.72 1.369 2.696 3.023 0 1.667-1.194 3.024-2.696 3.024Zm9.968 0c-1.478 0-2.696-1.357-2.696-3.024 0-1.666 1.195-3.023 2.696-3.023 1.514 0 2.72 1.369 2.697 3.023 0 1.667-1.183 3.024-2.697 3.024Z" fill="#fff"/></svg>