<svg width="30" height="30" fill="none" xmlns="http://www.w3.org/2000/svg"><path d="M15.863 12.5H8.96a.345.345 0 0 0-.346.345v4.834c0 .19.155.345.346.345h6.904c.191 0 .346-.155.346-.345v-4.834a.345.345 0 0 0-.346-.345Z" stroke="#1AC7FE" stroke-linecap="round" stroke-linejoin="round"/><path d="M10.857 12.5v-1.554a1.553 1.553 0 0 1 3.108 0V12.5" stroke="#1AC7FE" stroke-linecap="round" stroke-linejoin="round"/><path d="m14.137 24.225-.596.404c-.62.42-1.435.42-2.055 0l-3.969-2.691a5.483 5.483 0 0 1-2.374-3.953L4.136 8.593A1.828 1.828 0 0 1 5.575 6.61l5.908-1.252a4.97 4.97 0 0 1 2.06 0l5.909 1.252a1.828 1.828 0 0 1 1.44 1.983l-.716 6.669" stroke="#0364FF"/><path d="M17.071 24.238h-2.934v-2.934L22.94 12.5l2.935 2.934-8.804 8.804ZM20.74 14.701l2.934 2.935" stroke="#0364FF" stroke-linecap="round" stroke-linejoin="round"/></svg>