<svg width="30" height="30" fill="none" xmlns="http://www.w3.org/2000/svg"><path d="m21.27 17.695 1.067-9.94a1.985 1.985 0 0 0-1.564-2.153l-6.417-1.36a5.399 5.399 0 0 0-2.239 0L5.7 5.602a1.985 1.985 0 0 0-1.564 2.154L5.23 17.958a5.955 5.955 0 0 0 2.58 4.293l4.31 2.923a1.989 1.989 0 0 0 2.232 0l3.766-2.553" stroke="#0364FF"/><path d="m23.742 20.578-2.406 2.297-1.203-1.148" stroke="#1AC7FE" stroke-linecap="round" stroke-linejoin="round"/><path d="M21.938 25.5a3.938 3.938 0 1 0 0-7.875 3.938 3.938 0 0 0 0 7.875Z" stroke="#0364FF" stroke-linecap="round" stroke-linejoin="round"/><path d="M11.25 9.75c0-1.036.84-1.875 1.875-1.875h.188c1.035 0 1.874.84 1.874 1.875v1.125c0 1.036-.839 1.875-1.874 1.875h-.188a1.875 1.875 0 0 1-1.875-1.875V9.75ZM17.25 18.75V16.5c0-1.036-.84-1.875-1.875-1.875H11.25c-1.036 0-1.875.84-1.875 1.875v2.25" stroke="#1AC7FE"/></svg>