<svg width="150" height="171" fill="none" xmlns="http://www.w3.org/2000/svg"><circle opacity=".75" cx="97.493" cy="87.885" transform="rotate(36.072 97.493 87.885)" stroke="#9CBDFA" stroke-width="1.68" stroke-linecap="round" stroke-dasharray="1.68 4" r="64.058"/><g filter="url('#filter0_df_2563_8488')"><path fill-rule="evenodd" clip-rule="evenodd" d="M119.261 25.077c.476-.697 1.518-.813 2.327-.26l15.231 10.409c.809.553 1.079 1.565.603 2.262-.476.696-1.517.813-2.326.26l-15.232-10.41c-.809-.552-1.079-1.565-.603-2.261Z" fill="url('#paint0_radial_2563_8488')" shape-rendering="crispEdges"/></g><circle cx="128.036" cy="31.189" r="2.139" transform="rotate(34.348 128.036 31.19)" fill="#1AC7FE"/><g filter="url('#filter1_bd_2563_8488')"><circle cx="107.882" cy="107.272" r="27.882" fill="url('#paint1_linear_2563_8488')"/></g><g opacity=".35" filter="url('#filter2_d_2563_8488')"><ellipse cx="107.5" cy="107.39" rx="22.5" ry="22" fill="#fff"/></g><path d="M100 106.908h10.592c2.375 0 4.259-1.888 4.259-4.185 0-2.111-1.922-4.185-4.259-4.185H100v8.37Zm0 0h12.137c2.677 0 4.863 1.852 4.863 4.186 0 2.296-2.186 4.185-4.863 4.185H100v-8.371Zm6.784 8.334v4.148m0-25v4.148" stroke="url('#paint2_linear_2563_8488')" stroke-width="3" stroke-linecap="round" stroke-linejoin="round"/><g filter="url('#filter3_bd_2563_8488')"><ellipse cx="63.5" cy="60.39" rx="40.5" ry="40" fill="url('#paint3_linear_2563_8488')"/></g><g opacity=".35" filter="url('#filter4_d_2563_8488')"><ellipse cx="63" cy="60.89" rx="34" ry="33.5" fill="#fff"/></g><path d="M63 42.39v37m9.167-31.45h-13.75a6.388 6.388 0 0 0-4.538 1.896A6.505 6.505 0 0 0 52 54.415c0 1.717.676 3.364 1.88 4.578a6.388 6.388 0 0 0 4.537 1.897h9.166c1.702 0 3.334.682 4.538 1.896A6.505 6.505 0 0 1 74 67.365a6.505 6.505 0 0 1-1.88 4.578 6.388 6.388 0 0 1-4.537 1.897H52" stroke="url('#paint4_linear_2563_8488')" stroke-width="3" stroke-linecap="round" stroke-linejoin="round"/><defs><filter id="filter0_df_2563_8488" x="108.19" y="13.632" width="40.304" height="35.301" filterUnits="userSpaceOnUse" color-interpolation-filters="sRGB"><feFlood flood-opacity="0" result="BackgroundImageFix"/><feColorMatrix in="SourceAlpha" values="0 0 0 0 0 0 0 0 0 0 0 0 0 0 0 0 0 0 127 0" result="hardAlpha"/><feOffset/><feGaussianBlur stdDeviation="5.418"/><feComposite in2="hardAlpha" operator="out"/><feColorMatrix values="0 0 0 0 0.427451 0 0 0 0 0.521569 0 0 0 0 1 0 0 0 0.58 0"/><feBlend in2="BackgroundImageFix" result="effect1_dropShadow_2563_8488"/><feBlend in="SourceGraphic" in2="effect1_dropShadow_2563_8488" result="shape"/><feGaussianBlur stdDeviation="1.626" result="effect2_foregroundBlur_2563_8488"/></filter><filter id="filter1_bd_2563_8488" x="32" y="31.39" width="151.764" height="151.764" filterUnits="userSpaceOnUse" color-interpolation-filters="sRGB"><feFlood flood-opacity="0" result="BackgroundImageFix"/><feGaussianBlur in="BackgroundImageFix" stdDeviation="24"/><feComposite in2="SourceAlpha" operator="in" result="effect1_backgroundBlur_2563_8488"/><feColorMatrix in="SourceAlpha" values="0 0 0 0 0 0 0 0 0 0 0 0 0 0 0 0 0 0 127 0" result="hardAlpha"/><feOffset dx="1" dy="4"/><feGaussianBlur stdDeviation="5"/><feComposite in2="hardAlpha" operator="out"/><feColorMatrix values="0 0 0 0 0.393125 0 0 0 0 0.438812 0 0 0 0 0.85 0 0 0 0.25 0"/><feBlend in2="effect1_backgroundBlur_2563_8488" result="effect2_dropShadow_2563_8488"/><feBlend in="SourceGraphic" in2="effect2_dropShadow_2563_8488" result="shape"/></filter><filter id="filter2_d_2563_8488" x="80" y="82.39" width="55" height="54" filterUnits="userSpaceOnUse" color-interpolation-filters="sRGB"><feFlood flood-opacity="0" result="BackgroundImageFix"/><feColorMatrix in="SourceAlpha" values="0 0 0 0 0 0 0 0 0 0 0 0 0 0 0 0 0 0 127 0" result="hardAlpha"/><feOffset dy="2"/><feGaussianBlur stdDeviation="2.5"/><feComposite in2="hardAlpha" operator="out"/><feColorMatrix values="0 0 0 0 0.392157 0 0 0 0 0.439216 0 0 0 0 0.85098 0 0 0 0.15 0"/><feBlend in2="BackgroundImageFix" result="effect1_dropShadow_2563_8488"/><feBlend in="SourceGraphic" in2="effect1_dropShadow_2563_8488" result="shape"/></filter><filter id="filter3_bd_2563_8488" x="-25" y="-27.61" width="177" height="176" filterUnits="userSpaceOnUse" color-interpolation-filters="sRGB"><feFlood flood-opacity="0" result="BackgroundImageFix"/><feGaussianBlur in="BackgroundImageFix" stdDeviation="24"/><feComposite in2="SourceAlpha" operator="in" result="effect1_backgroundBlur_2563_8488"/><feColorMatrix in="SourceAlpha" values="0 0 0 0 0 0 0 0 0 0 0 0 0 0 0 0 0 0 127 0" result="hardAlpha"/><feOffset dx="1" dy="4"/><feGaussianBlur stdDeviation="5"/><feComposite in2="hardAlpha" operator="out"/><feColorMatrix values="0 0 0 0 0.393125 0 0 0 0 0.438812 0 0 0 0 0.85 0 0 0 0.25 0"/><feBlend in2="effect1_backgroundBlur_2563_8488" result="effect2_dropShadow_2563_8488"/><feBlend in="SourceGraphic" in2="effect2_dropShadow_2563_8488" result="shape"/></filter><filter id="filter4_d_2563_8488" x="24" y="24.39" width="78" height="77" filterUnits="userSpaceOnUse" color-interpolation-filters="sRGB"><feFlood flood-opacity="0" result="BackgroundImageFix"/><feColorMatrix in="SourceAlpha" values="0 0 0 0 0 0 0 0 0 0 0 0 0 0 0 0 0 0 127 0" result="hardAlpha"/><feOffset dy="2"/><feGaussianBlur stdDeviation="2.5"/><feComposite in2="hardAlpha" operator="out"/><feColorMatrix values="0 0 0 0 0.392157 0 0 0 0 0.439216 0 0 0 0 0.85098 0 0 0 0.15 0"/><feBlend in2="BackgroundImageFix" result="effect1_dropShadow_2563_8488"/><feBlend in="SourceGraphic" in2="effect1_dropShadow_2563_8488" result="shape"/></filter><linearGradient id="paint1_linear_2563_8488" x1="133.354" y1="142.472" x2="133.128" y2="79.308" gradientUnits="userSpaceOnUse"><stop stop-color="#D7DEFB"/><stop offset=".792" stop-color="#fff"/></linearGradient><linearGradient id="paint2_linear_2563_8488" x1="93.432" y1="101.147" x2="119.292" y2="132.997" gradientUnits="userSpaceOnUse"><stop stop-color="#66D4F7"/><stop offset=".323" stop-color="#4D92FF"/><stop offset="1" stop-color="#BB65FF"/></linearGradient><linearGradient id="paint3_linear_2563_8488" x1="100.5" y1="110.89" x2="100.18" y2="20.273" gradientUnits="userSpaceOnUse"><stop stop-color="#D7DEFB"/><stop offset=".792" stop-color="#fff"/></linearGradient><linearGradient id="paint4_linear_2563_8488" x1="43.5" y1="52.39" x2="82.5" y2="94.39" gradientUnits="userSpaceOnUse"><stop stop-color="#66D4F7"/><stop offset=".323" stop-color="#4D92FF"/><stop offset="1" stop-color="#BB65FF"/></linearGradient><radialGradient id="paint0_radial_2563_8488" cx="0" cy="0" r="1" gradientUnits="userSpaceOnUse" gradientTransform="rotate(110.386 53.297 60.253) scale(3.84875 27.711)"><stop stop-color="#1AC7FE"/><stop offset="1" stop-color="#fff" stop-opacity="0"/></radialGradient></defs></svg>