<svg width="30" height="30" fill="none" xmlns="http://www.w3.org/2000/svg"><path d="M26.186 8.25H3.814a.86.86 0 0 0-.86.86v12.047c0 .476.384.86.86.86h22.372a.86.86 0 0 0 .86-.86V9.11a.86.86 0 0 0-.86-.86Z" stroke="#fff" stroke-linecap="round" stroke-linejoin="round"/><path d="M15 19.833a4.633 4.633 0 1 0 0-9.266 4.633 4.633 0 0 0 0 9.266Z" stroke="#1AC7FE" stroke-linecap="round" stroke-linejoin="round"/><path d="M13.378 13.417h1.989a.861.861 0 1 1 0 1.723h-1.234" stroke="#1AC7FE" stroke-linecap="round"/><path d="M13.378 16.862h2.382a.861.861 0 0 0 0-1.722h-1.627M14.144 12.651v4.998M15.526 12.651v.777m0 4.221v-.787" stroke="#1AC7FE" stroke-linecap="round"/><path d="m20.163 8.25 6.884 6.023M20.163 22.018l6.884-6.024M9.837 8.25l-6.884 6.023M9.837 22.018l-6.884-6.024" stroke="#fff" stroke-linecap="round" stroke-linejoin="round"/></svg>