<svg version="1.1" id="Layer_1" x="0" y="0" width="1000" height="422.39" xml:space="preserve" xmlns="http://www.w3.org/2000/svg"><g id="g830"><path style="fill:#111212;fill-opacity:1;stroke-width:1.00007px;display:inline" d="M0 0v422.39h127.843V286.065h116.234V170.492H127.843v-55.283H270.37L262.631 0Z" id="path8051"/><path id="path8458" style="fill:#111212;fill-opacity:1;stroke-width:1.00007px;display:inline" d="M475.48 0C358.477 0 264.284 94.194 264.284 211.196S358.477 422.39 475.48 422.39c117.002 0 211.194-94.192 211.194-211.194S592.482 0 475.48 0Zm0 86.988c19.755 0 35.657 15.902 35.657 35.658v177.099c0 19.755-15.902 35.659-35.657 35.659-19.756 0-35.66-15.904-35.66-35.66V122.647c0-19.756 15.904-35.658 35.66-35.658z"/><path id="path8456" style="fill:#111212;fill-opacity:1;stroke-width:1.00008px;display:inline" d="m623.317 0 119.838 211.195L623.317 422.39h137.01l51.332-90.469 51.333 90.469H1000L880.164 211.195 1000 0H862.992L811.66 90.467 760.329 0Z"/></g></svg>