<svg width="30" height="31" fill="none" xmlns="http://www.w3.org/2000/svg"><g clip-path="url('#clip0_857_782')" fill="#fff"><path fill-rule="evenodd" clip-rule="evenodd" d="M15 .788a15.054 15.054 0 0 0-9.716 3.558A14.897 14.897 0 0 0 .2 13.316a14.846 14.846 0 0 0 1.97 10.107 14.987 14.987 0 0 0 8.086 6.431c.745.139 1.026-.323 1.026-.716 0-.393-.015-1.531-.02-2.776-4.173.902-5.054-1.76-5.054-1.76-.68-1.73-1.664-2.184-1.664-2.184-1.362-.924.101-.906.101-.906 1.508.106 2.3 1.538 2.3 1.538 1.337 2.28 3.51 1.62 4.364 1.235.135-.966.525-1.622.954-1.995-3.333-.376-6.835-1.655-6.835-7.37a5.758 5.758 0 0 1 1.545-4.004c-.154-.375-.668-1.891.146-3.951 0 0 1.26-.4 4.126 1.529a14.316 14.316 0 0 1 7.511 0c2.864-1.93 4.12-1.53 4.12-1.53.818 2.056.304 3.572.15 3.952a5.746 5.746 0 0 1 1.547 4.009c0 5.727-3.51 6.99-6.848 7.357.537.464 1.016 1.37 1.016 2.764 0 1.995-.017 3.6-.017 4.092 0 .398.27.862 1.03.716a14.987 14.987 0 0 0 8.088-6.432 14.846 14.846 0 0 0 1.969-10.109 14.897 14.897 0 0 0-5.087-8.97A15.054 15.054 0 0 0 15.005.789H15Z"/><path d="M5.68 22.203c-.032.074-.151.096-.248.044-.097-.052-.169-.148-.134-.224.035-.077.151-.097.248-.045.097.052.172.15.134.225ZM6.289 22.877a.25.25 0 0 1-.308-.07c-.097-.103-.117-.246-.042-.31.074-.064.208-.035.305.069.097.104.12.247.045.311ZM6.88 23.735c-.092.064-.248 0-.335-.129a.248.248 0 0 1-.056-.274.248.248 0 0 1 .056-.081c.092-.062.248 0 .335.126.087.126.09.294 0 .358ZM7.683 24.564c-.082.091-.249.066-.385-.057-.137-.124-.17-.292-.087-.38.082-.09.248-.065.39.056.141.121.168.292.082.38ZM8.808 25.048c-.038.116-.206.168-.375.119-.17-.05-.281-.188-.249-.307.033-.118.204-.172.375-.118.172.054.281.185.249.306ZM10.035 25.132c0 .121-.14.225-.318.228-.179.002-.325-.097-.325-.218 0-.12.139-.224.318-.227.178-.002.325.094.325.217ZM11.177 24.942c.022.121-.102.247-.28.277-.18.03-.336-.042-.358-.16-.023-.12.107-.248.28-.28.174-.032.336.042.358.163Z"/></g><defs><clipPath id="clip0_857_782"><path fill="#fff" transform="translate(0 .163)" d="M0 0h30v30H0z"/></clipPath></defs></svg>