<svg width="1299" height="830" fill="none" xmlns="http://www.w3.org/2000/svg"><path opacity=".1" d="M677.845 82.142c226.027 0 409.255 148.876 409.255 332.523 0 183.648-183.228 332.524-409.255 332.524" stroke="url('#paint0_linear')" stroke-width="1.538"/><path opacity=".2" d="M702.322 42.367c253.064 0 458.218 166.683 458.218 372.298S955.386 786.964 702.322 786.964" stroke="url('#paint1_linear')" stroke-width="1.538"/><path opacity=".4" d="M740.506 1c281.184 0 509.124 185.204 509.124 413.665s-227.94 413.666-509.124 413.666" stroke="url('#paint2_linear')" stroke-width="1.538"/><path opacity=".1" d="M590.608 82.142c-226.028 0-409.26 148.876-409.26 332.523 0 183.648 183.232 332.524 409.26 332.524" stroke="url('#paint3_linear')" stroke-width="1.538"/><path opacity=".2" d="M566.13 42.367c-253.064 0-458.213 166.683-458.213 372.298S313.066 786.964 566.13 786.964" stroke="url('#paint4_linear')" stroke-width="1.538"/><path opacity=".4" d="M527.946 1C246.763 1 18.819 186.204 18.819 414.665s227.944 413.666 509.127 413.666" stroke="url('#paint5_linear')" stroke-width="1.538"/><g filter="url('#filter0_bi')"><path fill-rule="evenodd" clip-rule="evenodd" d="M1249.63 477.033c26.72 0 48.37-21.654 48.37-48.367 0-26.712-21.65-48.367-48.37-48.367-26.71 0-48.36 21.655-48.36 48.367 0 26.713 21.65 48.367 48.36 48.367Z" fill="#F3FAFF" fill-opacity=".7" stroke="#F3FAFF" stroke-width="2"/></g><g filter="url('#filter1_bi')"><path fill-rule="evenodd" clip-rule="evenodd" d="M186.831 441.395c26.713 0 48.367-21.655 48.367-48.367 0-26.713-21.654-48.368-48.367-48.368-26.712 0-48.367 21.655-48.367 48.368 0 26.712 21.655 48.367 48.367 48.367Z" fill="#F3FAFF" fill-opacity=".7" stroke="#F3FAFF" stroke-width="2"/></g><g filter="url('#filter2_bi')"><path fill-rule="evenodd" clip-rule="evenodd" d="M1054.89 573.767c26.71 0 48.37-21.654 48.37-48.367 0-26.712-21.66-48.367-48.37-48.367-26.71 0-48.37 21.655-48.37 48.367 0 26.713 21.66 48.367 48.37 48.367Z" fill="#F3FAFF" fill-opacity=".5" stroke="#F3FAFF" stroke-width="2"/></g><g filter="url('#filter3_bi')"><path fill-rule="evenodd" clip-rule="evenodd" d="M49.367 279.747c26.712 0 48.367-21.655 48.367-48.367 0-26.713-21.655-48.367-48.367-48.367C22.655 183.013 1 204.667 1 231.38c0 26.712 21.655 48.367 48.367 48.367Z" fill="#F3FAFF" fill-opacity=".5" stroke="#F3FAFF" stroke-width="2"/></g><g filter="url('#filter4_bi')"><path fill-rule="evenodd" clip-rule="evenodd" d="M1143.99 344.66c22.49 0 40.73-18.235 40.73-40.73 0-22.494-18.24-40.73-40.73-40.73-22.5 0-40.73 18.236-40.73 40.73 0 22.495 18.23 40.73 40.73 40.73Z" fill="#F3FAFF" fill-opacity=".3" stroke="#F3FAFF" stroke-width="1.684"/></g><g filter="url('#filter5_bi')"><path fill-rule="evenodd" clip-rule="evenodd" d="M138.464 596.678c22.495 0 40.73-18.235 40.73-40.73 0-22.495-18.235-40.73-40.73-40.73-22.494 0-40.73 18.235-40.73 40.73 0 22.495 18.236 40.73 40.73 40.73Z" fill="#F3FAFF" fill-opacity=".3" stroke="#F3FAFF" stroke-width="1.684"/></g><defs><linearGradient id="paint0_linear" x1="1087.1" y1="747.189" x2="677.845" y2="747.189" gradientUnits="userSpaceOnUse"><stop stop-color="#1565D8"/><stop offset=".597" stop-color="#F8FBFF"/><stop offset="1" stop-color="#fff"/></linearGradient><linearGradient id="paint1_linear" x1="1160.54" y1="786.964" x2="702.322" y2="786.964" gradientUnits="userSpaceOnUse"><stop stop-color="#1565D8"/><stop offset=".597" stop-color="#F8FBFF"/><stop offset="1" stop-color="#fff"/></linearGradient><linearGradient id="paint2_linear" x1="1249.63" y1="828.331" x2="740.506" y2="828.331" gradientUnits="userSpaceOnUse"><stop stop-color="#1565D8"/><stop offset=".597" stop-color="#F8FBFF"/><stop offset="1" stop-color="#fff"/></linearGradient><linearGradient id="paint3_linear" x1="181.348" y1="747.189" x2="590.608" y2="747.189" gradientUnits="userSpaceOnUse"><stop stop-color="#1565D8"/><stop offset=".597" stop-color="#F8FBFF"/><stop offset="1" stop-color="#fff"/></linearGradient><linearGradient id="paint4_linear" x1="107.917" y1="786.964" x2="566.13" y2="786.964" gradientUnits="userSpaceOnUse"><stop stop-color="#1565D8"/><stop offset=".597" stop-color="#F8FBFF"/><stop offset="1" stop-color="#fff"/></linearGradient><linearGradient id="paint5_linear" x1="18.819" y1="828.331" x2="527.946" y2="828.331" gradientUnits="userSpaceOnUse"><stop stop-color="#1565D8"/><stop offset=".597" stop-color="#F8FBFF"/><stop offset="1" stop-color="#fff"/></linearGradient><filter id="filter0_bi" x="1192.27" y="371.299" width="114.734" height="114.734" filterUnits="userSpaceOnUse" color-interpolation-filters="sRGB"><feFlood flood-opacity="0" result="BackgroundImageFix"/><feGaussianBlur in="BackgroundImage" stdDeviation="4"/><feComposite in2="SourceAlpha" operator="in" result="effect1_backgroundBlur"/><feBlend in="SourceGraphic" in2="effect1_backgroundBlur" result="shape"/><feColorMatrix in="SourceAlpha" values="0 0 0 0 0 0 0 0 0 0 0 0 0 0 0 0 0 0 127 0" result="hardAlpha"/><feOffset/><feGaussianBlur stdDeviation="4"/><feComposite in2="hardAlpha" operator="arithmetic" k2="-1" k3="1"/><feColorMatrix values="0 0 0 0 0.803922 0 0 0 0 0.878431 0 0 0 0 1 0 0 0 0.25 0"/><feBlend in2="shape" result="effect2_innerShadow"/></filter><filter id="filter1_bi" x="129.464" y="335.66" width="114.734" height="114.734" filterUnits="userSpaceOnUse" color-interpolation-filters="sRGB"><feFlood flood-opacity="0" result="BackgroundImageFix"/><feGaussianBlur in="BackgroundImage" stdDeviation="4"/><feComposite in2="SourceAlpha" operator="in" result="effect1_backgroundBlur"/><feBlend in="SourceGraphic" in2="effect1_backgroundBlur" result="shape"/><feColorMatrix in="SourceAlpha" values="0 0 0 0 0 0 0 0 0 0 0 0 0 0 0 0 0 0 127 0" result="hardAlpha"/><feOffset/><feGaussianBlur stdDeviation="4"/><feComposite in2="hardAlpha" operator="arithmetic" k2="-1" k3="1"/><feColorMatrix values="0 0 0 0 0.803922 0 0 0 0 0.878431 0 0 0 0 1 0 0 0 0.25 0"/><feBlend in2="shape" result="effect2_innerShadow"/></filter><filter id="filter2_bi" x="997.525" y="468.033" width="114.734" height="114.734" filterUnits="userSpaceOnUse" color-interpolation-filters="sRGB"><feFlood flood-opacity="0" result="BackgroundImageFix"/><feGaussianBlur in="BackgroundImage" stdDeviation="4"/><feComposite in2="SourceAlpha" operator="in" result="effect1_backgroundBlur"/><feBlend in="SourceGraphic" in2="effect1_backgroundBlur" result="shape"/><feColorMatrix in="SourceAlpha" values="0 0 0 0 0 0 0 0 0 0 0 0 0 0 0 0 0 0 127 0" result="hardAlpha"/><feOffset/><feGaussianBlur stdDeviation="4"/><feComposite in2="hardAlpha" operator="arithmetic" k2="-1" k3="1"/><feColorMatrix values="0 0 0 0 0.803922 0 0 0 0 0.878431 0 0 0 0 1 0 0 0 0.25 0"/><feBlend in2="shape" result="effect2_innerShadow"/></filter><filter id="filter3_bi" x="-8" y="174.013" width="114.734" height="114.734" filterUnits="userSpaceOnUse" color-interpolation-filters="sRGB"><feFlood flood-opacity="0" result="BackgroundImageFix"/><feGaussianBlur in="BackgroundImage" stdDeviation="4"/><feComposite in2="SourceAlpha" operator="in" result="effect1_backgroundBlur"/><feBlend in="SourceGraphic" in2="effect1_backgroundBlur" result="shape"/><feColorMatrix in="SourceAlpha" values="0 0 0 0 0 0 0 0 0 0 0 0 0 0 0 0 0 0 127 0" result="hardAlpha"/><feOffset/><feGaussianBlur stdDeviation="4"/><feComposite in2="hardAlpha" operator="arithmetic" k2="-1" k3="1"/><feColorMatrix values="0 0 0 0 0.803922 0 0 0 0 0.878431 0 0 0 0 1 0 0 0 0.25 0"/><feBlend in2="shape" result="effect2_innerShadow"/></filter><filter id="filter4_bi" x="1094.42" y="254.358" width="99.144" height="99.144" filterUnits="userSpaceOnUse" color-interpolation-filters="sRGB"><feFlood flood-opacity="0" result="BackgroundImageFix"/><feGaussianBlur in="BackgroundImage" stdDeviation="4"/><feComposite in2="SourceAlpha" operator="in" result="effect1_backgroundBlur"/><feBlend in="SourceGraphic" in2="effect1_backgroundBlur" result="shape"/><feColorMatrix in="SourceAlpha" values="0 0 0 0 0 0 0 0 0 0 0 0 0 0 0 0 0 0 127 0" result="hardAlpha"/><feOffset/><feGaussianBlur stdDeviation="4"/><feComposite in2="hardAlpha" operator="arithmetic" k2="-1" k3="1"/><feColorMatrix values="0 0 0 0 0.803922 0 0 0 0 0.878431 0 0 0 0 1 0 0 0 0.25 0"/><feBlend in2="shape" result="effect2_innerShadow"/></filter><filter id="filter5_bi" x="88.892" y="506.376" width="99.144" height="99.144" filterUnits="userSpaceOnUse" color-interpolation-filters="sRGB"><feFlood flood-opacity="0" result="BackgroundImageFix"/><feGaussianBlur in="BackgroundImage" stdDeviation="4"/><feComposite in2="SourceAlpha" operator="in" result="effect1_backgroundBlur"/><feBlend in="SourceGraphic" in2="effect1_backgroundBlur" result="shape"/><feColorMatrix in="SourceAlpha" values="0 0 0 0 0 0 0 0 0 0 0 0 0 0 0 0 0 0 127 0" result="hardAlpha"/><feOffset/><feGaussianBlur stdDeviation="4"/><feComposite in2="hardAlpha" operator="arithmetic" k2="-1" k3="1"/><feColorMatrix values="0 0 0 0 0.803922 0 0 0 0 0.878431 0 0 0 0 1 0 0 0 0.25 0"/><feBlend in2="shape" result="effect2_innerShadow"/></filter></defs></svg>