<svg width="81" height="81" fill="none" xmlns="http://www.w3.org/2000/svg"><path d="M71.113 41.313V37.92c0-2.41-1.542-4.364-3.444-4.364H43.558c-1.903 0-3.445 1.954-3.445 4.364v15.273c0 2.41 1.542 4.363 3.445 4.363h14.509M64.113 25.89v-1.334a8 8 0 0 0-8-8v0a8 8 0 0 0-8 8v9" stroke="#454A72" stroke-width="2.154" stroke-linecap="round"/><path opacity=".5" d="M80.113 52.119a7.563 7.563 0 0 1-8.973 7.43L70.11 60.71a1.032 1.032 0 0 1-.771.346h-1.6v1.719c0 .57-.461 1.031-1.031 1.031h-1.719v1.719c0 .57-.461 1.031-1.031 1.031h-4.813c-.569 0-1.03-.462-1.03-1.031V62.17c0-.274.108-.536.301-.73l6.953-6.952a7.562 7.562 0 0 1 7.183-9.933 7.547 7.547 0 0 1 7.562 7.563Zm-7.562-2.063a2.062 2.062 0 1 0 4.125 0 2.062 2.062 0 0 0-4.125 0Z" fill="#454A72"/></svg>