<svg width="30" height="30" fill="none" xmlns="http://www.w3.org/2000/svg"><path d="M18.36 9.585V8.167c0-.782-.634-1.417-1.417-1.417h-4.075c-.783 0-1.417.635-1.417 1.417v1.418M5.87 14.855v8.77h18.204V14.9" stroke="#fff" stroke-linejoin="round"/><path d="M5.25 9.585v-.5a.5.5 0 0 0-.5.5h.5Zm19.488 0h.5a.5.5 0 0 0-.5-.5v.5Zm-19.488.5h19.488v-1H5.25v1Zm18.988-.5v3.1h1v-3.1h-1Zm-3.575 6.675H9.325v1h11.338v-1ZM5.75 12.685v-3.1h-1v3.1h1Zm3.575 3.575a3.575 3.575 0 0 1-3.575-3.575h-1a4.575 4.575 0 0 0 4.575 4.575v-1Zm14.913-3.575c0 1.975-1.6 3.575-3.575 3.575v1a4.575 4.575 0 0 0 4.575-4.575h-1Z" fill="#1AC7FE"/><path d="M11.242 14.81a.5.5 0 0 0-1 0h1Zm-1 3.943a.5.5 0 1 0 1 0h-1Zm0-3.943v3.943h1V14.81h-1ZM19.657 14.81a.5.5 0 0 0-1 0h1Zm-1 3.943a.5.5 0 1 0 1 0h-1Zm0-3.943v3.943h1V14.81h-1Z" fill="#1AC7FE"/></svg>