<svg width="30" height="30" fill="none" xmlns="http://www.w3.org/2000/svg"><path d="M17.365 7.783a6.872 6.872 0 0 1 4.852 4.852M16.654 10.434a4.123 4.123 0 0 1 2.912 2.911" stroke="#1AC7FE" stroke-linecap="round" stroke-linejoin="round"/><path d="M11.625 15.056a7.232 7.232 0 0 0 3.348 3.334.68.68 0 0 0 .672-.051l2.147-1.432a.687.687 0 0 1 .65-.06l4.017 1.722a.684.684 0 0 1 .411.711 4.116 4.116 0 0 1-4.083 3.595A11.661 11.661 0 0 1 7.125 11.213 4.117 4.117 0 0 1 10.72 7.13a.684.684 0 0 1 .711.411l1.723 4.02a.685.685 0 0 1-.056.646l-1.427 2.18a.68.68 0 0 0-.046.669v0Z" stroke="#0364FF" stroke-linecap="round" stroke-linejoin="round"/></svg>