<svg width="82" height="81" fill="none" xmlns="http://www.w3.org/2000/svg"><path d="M29.668 28.806h39.703m-16.4 25.676h-19.38a3.924 3.924 0 0 1-3.923-3.923V24.313a3.924 3.924 0 0 1 3.924-3.923h32.174a3.924 3.924 0 0 1 3.924 3.923v14.202" stroke="#454A72" stroke-width="2.154" stroke-linecap="round"/><path opacity=".5" d="M79.153 50.526H66.53v-3.244c0-.86.345-1.686.958-2.294a3.287 3.287 0 0 1 2.314-.95c.868 0 1.7.341 2.314.95a3.23 3.23 0 0 1 .959 2.294c0 .246.099.482.274.655a.939.939 0 0 0 1.322 0 .923.923 0 0 0 .274-.655c0-1.352-.542-2.65-1.506-3.605a5.165 5.165 0 0 0-3.637-1.494 5.165 5.165 0 0 0-3.636 1.493 5.077 5.077 0 0 0-1.506 3.606v3.245h-4.208a1.88 1.88 0 0 0-1.322.543c-.35.348-.547.819-.548 1.31v12.98c0 .49.198.962.548 1.31.351.347.826.543 1.322.543h18.7a1.88 1.88 0 0 0 1.322-.543c.351-.348.548-.82.549-1.31V52.38c0-.491-.198-.962-.549-1.31a1.88 1.88 0 0 0-1.321-.544Z" fill="#454A72"/><path d="m44.367 37.03-3.91 3.26 3.91 3.258M54.795 37.03l3.91 3.26-3.91 3.258M52.188 33.12 46.975 47.46" stroke="#454A72" stroke-width="2.154" stroke-linecap="round" stroke-linejoin="round"/></svg>