<svg width="307" height="171" fill="none" xmlns="http://www.w3.org/2000/svg"><path opacity=".75" d="M249 118.39v-12.693a7.307 7.307 0 0 0-7.307-7.307H193" stroke="#9CBDFA" stroke-width="1.534" stroke-linecap="round" stroke-dasharray="1.53 3.65"/><rect x="234" y="118.376" width="30.833" height="30.834" rx="6" fill="url('#paint0_linear_2563_8633')"/><path d="M249.858 124.417c-5.421 0-9.817 4.396-9.817 9.817s4.396 9.817 9.817 9.817c5.42 0 9.816-4.396 9.816-9.817s-4.394-9.817-9.816-9.817Zm-4.973 10.147.041-.067 2.554-3.995c.037-.057.126-.051.153.011.426.957.795 2.146.623 2.886-.073.305-.275.717-.503 1.098a1.93 1.93 0 0 1-.096.163.086.086 0 0 1-.073.037h-2.625a.086.086 0 0 1-.074-.133Zm11.381 1.374a.091.091 0 0 1-.053.083c-.198.084-.876.396-1.156.787-.719.999-1.267 2.428-2.494 2.428h-5.116a3.287 3.287 0 0 1-3.283-3.294v-.059c0-.047.039-.086.088-.086h2.851c.057 0 .098.051.094.108a.964.964 0 0 0 .102.547c.169.344.521.558.9.558h.861a.55.55 0 0 0 0-1.101h-.846a.09.09 0 0 1-.072-.142 10.908 10.908 0 0 0 .559-.885c.128-.224.252-.464.352-.703.019-.043.035-.088.053-.132.027-.076.055-.149.074-.22.02-.06.038-.123.053-.182a2.87 2.87 0 0 0 .067-.644c0-.088-.004-.181-.012-.267a3.569 3.569 0 0 0-.027-.289c-.008-.084-.024-.169-.039-.255a5.803 5.803 0 0 0-.081-.383l-.012-.049a9.87 9.87 0 0 0-.457-1.345c-.059-.145-.12-.277-.175-.4a2.84 2.84 0 0 1-.076-.161c-.028-.059-.055-.118-.085-.175-.02-.043-.043-.084-.059-.124l-.173-.318c-.023-.043.016-.096.063-.082l1.076.291.008.001.008.001.137.041.157.043a.045.045 0 0 0 .057-.044v-.581c0-.31.248-.561.556-.561a.564.564 0 0 1 .554.561v.846c0 .063.042.118.102.134l.026.01a4.574 4.574 0 0 1 .133.098c.041.032.084.071.135.112.104.084.23.192.365.316.036.032.071.063.104.096.175.163.371.354.56.566.053.061.104.12.157.184.051.065.108.128.155.191.065.084.132.173.193.265.027.043.06.088.086.131.078.116.145.236.21.356.027.055.055.116.079.174.072.161.129.324.164.489.012.036.02.073.024.108l.002.016a1.688 1.688 0 0 1-.069.858c-.025.069-.049.139-.08.208a2.867 2.867 0 0 1-.216.41c-.028.05-.061.101-.092.15-.036.051-.073.1-.105.147a3.127 3.127 0 0 1-.141.181c-.043.058-.086.117-.135.17a4.536 4.536 0 0 1-.201.228 1.66 1.66 0 0 1-.127.139c-.043.05-.089.093-.128.132-.069.069-.124.12-.171.165l-.112.1a.08.08 0 0 1-.058.024h-.31a.55.55 0 1 0 0 1.101h.531c.242 0 .472-.084.658-.243.063-.055.34-.295.668-.656a.073.073 0 0 1 .041-.026l2.986-.864a.088.088 0 0 1 .112.085v.632Z" fill="#fff"/><path opacity=".75" d="M260 64.39v11.693a7.307 7.307 0 0 1-7.307 7.307H193" stroke="#9CBDFA" stroke-width="1.534" stroke-linecap="round" stroke-dasharray="1.53 3.65"/><rect x="243" y="32.263" width="30.833" height="30.834" rx="6" fill="url('#paint1_linear_2563_8633')"/><path d="m261.188 45.425.992 1.166c.172.197.363.384.497.61.144.24.221.515.221.798-.028.49-.347.824-.643 1.181l-.695.816-.362.422a.1.1 0 0 0-.024.052.11.11 0 0 0 .009.056.102.102 0 0 0 .095.057h3.619c.553 0 1.25.464 1.209 1.17-.001.32-.131.627-.361.854a1.24 1.24 0 0 1-.867.356h-5.669c-.372 0-1.375.04-1.656-.815a1.002 1.002 0 0 1-.024-.554c.082-.27.211-.525.382-.752.285-.422.593-.844.898-1.254.392-.537.795-1.056 1.191-1.603a.102.102 0 0 0 .022-.063.1.1 0 0 0-.022-.062l-1.44-1.69a.105.105 0 0 0-.035-.029.105.105 0 0 0-.09 0 .109.109 0 0 0-.036.03c-.385.513-2.074 2.785-2.434 3.246-.36.46-1.248.486-1.738 0l-2.253-2.229a.103.103 0 0 0-.176.072v4.286a1.44 1.44 0 0 1-.261.852c-.175.25-.426.44-.716.544a1.25 1.25 0 0 1-1.118-.157 1.218 1.218 0 0 1-.519-.988v-7.705c.013-.278.114-.544.289-.762.176-.218.416-.375.688-.45a1.389 1.389 0 0 1 1.324.354l3.464 3.418c.01.01.023.018.037.023a.103.103 0 0 0 .085-.007.093.093 0 0 0 .032-.029l2.46-3.356a1.232 1.232 0 0 1 .935-.441h6.399a1.243 1.243 0 0 1 .925.414 1.202 1.202 0 0 1 .293.959 1.235 1.235 0 0 1-.43.761 1.27 1.27 0 0 1-.832.295h-3.584a.1.1 0 0 0-.098.105.1.1 0 0 0 .017.049Z" fill="#fff"/><path opacity=".75" d="M77 70.39v11.693a7.307 7.307 0 0 0 7.307 7.307H121" stroke="#9CBDFA" stroke-width="1.534" stroke-linecap="round" stroke-dasharray="1.53 3.65"/><rect x="62" y="38.39" width="30.833" height="30.834" rx="6" fill="url('#paint2_linear_2563_8633')"/><path d="M72.947 48.395c0-1.133.92-2.05 2.05-2.05 1.133 0 2.051.92 2.051 2.05 0 1.132-.92 2.05-2.05 2.05-1.133 0-2.05-.92-2.05-2.05Zm0 5.858c0-1.132.92-2.05 2.05-2.05 1.133 0 2.051.92 2.051 2.05 0 1.133-.92 2.05-2.05 2.05-1.133 0-2.05-.92-2.05-2.05Zm0 5.273c0-1.133.92-2.05 2.05-2.05 1.133 0 2.051.92 2.051 2.05 0 1.132-.92 2.05-2.05 2.05-1.133 0-2.05-.92-2.05-2.05Zm7.03-10.838c0-.647.52-1.172 1.172-1.172.647 0 1.172.52 1.172 1.172 0 .647-.52 1.171-1.172 1.171-.647 0-1.171-.52-1.171-1.171Zm0 5.858c0-.647.52-1.172 1.172-1.172.647 0 1.172.52 1.172 1.172 0 .647-.52 1.172-1.172 1.172-.647 0-1.171-.52-1.171-1.172Zm0 5.273c0-.647.52-1.172 1.172-1.172.647 0 1.172.52 1.172 1.172 0 .647-.52 1.172-1.172 1.172-.647 0-1.171-.52-1.171-1.172Z" fill="#fff"/><path opacity=".75" d="M50 131.39v-12.693a7.307 7.307 0 0 1 7.307-7.307H121" stroke="#9CBDFA" stroke-width="1.534" stroke-linecap="round" stroke-dasharray="1.53 3.65"/><rect x="34" y="127.943" width="30.833" height="30.834" rx="6" fill="url('#paint3_linear_2563_8633')"/><path fill-rule="evenodd" clip-rule="evenodd" d="M52.197 142.625a3.466 3.466 0 1 1-6.932 0 3.466 3.466 0 0 1 6.932 0ZM42.09 139.49a.165.165 0 0 1 .285 0l3.538 6.126a.165.165 0 0 1-.144.248h-7.074a.165.165 0 0 1-.142-.248l3.537-6.126Zm10.89-.124a.33.33 0 0 0-.33.33v5.858c0 .183.147.33.33.33h5.858a.33.33 0 0 0 .33-.33v-5.858a.33.33 0 0 0-.33-.33H52.98Z" fill="#fff"/><g filter="url('#filter0_bd_2563_8633')"><rect x="110.156" y="25.869" width="91.824" height="169.521" rx="7.11" fill="url('#paint4_linear_2563_8633')" shape-rendering="crispEdges"/><g filter="url('#filter1_b_2563_8633')"><path fill-rule="evenodd" clip-rule="evenodd" d="M127.74 28.574h-5.901a8.98 8.98 0 0 0-8.98 8.98v140.142a8.98 8.98 0 0 0 8.98 8.98h68.269a8.98 8.98 0 0 0 8.98-8.98V37.554a8.98 8.98 0 0 0-8.98-8.98h-5.904a3.607 3.607 0 0 1-3.607 3.547h-49.249a3.608 3.608 0 0 1-3.608-3.547Z" fill="#969EE7" fill-opacity=".25"/></g><g filter="url('#filter2_bd_2563_8633')"><ellipse cx="155.502" cy="110.39" rx="32.4" ry="32" fill="url('#paint5_linear_2563_8633')"/></g><g opacity=".35" filter="url('#filter3_d_2563_8633')"><ellipse cx="155.002" cy="110.89" rx="27" ry="26.5" fill="#fff"/></g><path fill-rule="evenodd" clip-rule="evenodd" d="m164.199 116.696 3.765 2.304-.654 1.236-3.765-2.303.654-1.237Z" fill="url('#paint6_linear_2563_8633')"/><path fill-rule="evenodd" clip-rule="evenodd" d="M169.887 124.209c1.895 0 3.432-1.583 3.432-3.536s-1.537-3.536-3.432-3.536c-1.896 0-3.433 1.583-3.433 3.536s1.537 3.536 3.433 3.536Zm2.166-5.197-.636-.486-2.087 2.895-1.02-.99-.543.593 1.668 1.621 2.618-3.633Z" fill="url('#paint7_linear_2563_8633')"/><g opacity=".5" fill="#1AC7FE"><path fill-rule="evenodd" clip-rule="evenodd" d="m167.462 102.085-3.493 1.884-.655-1.237 3.493-1.883.655 1.236Z"/><path d="M173.258 100c0 1.954-1.537 3.537-3.432 3.537-1.896 0-3.432-1.583-3.432-3.537 0-1.953 1.536-3.536 3.432-3.536 1.895 0 3.432 1.583 3.432 3.536Z"/></g><path d="M164.097 110.048h-3.271a2.187 2.187 0 0 0-2.187 2.187v0c0 1.208.979 2.188 2.187 2.188h3.271m.293-9.735v11.218a3 3 0 0 1-3 3h-13.804a3 3 0 0 1-3-3v-11.218m19.804.094v0a2.633 2.633 0 0 0-2.633-2.633h-14.538a2.633 2.633 0 0 0-2.633 2.633v0a2.633 2.633 0 0 0 2.633 2.633h14.538a2.633 2.633 0 0 0 2.633-2.633Z" stroke="url('#paint8_linear_2563_8633')" stroke-width="2" stroke-linecap="round" stroke-linejoin="round"/></g><defs><linearGradient id="paint0_linear_2563_8633" x1="231.859" y1="123.087" x2="264.834" y2="147.067" gradientUnits="userSpaceOnUse"><stop stop-color="#66D4F7"/><stop offset=".323" stop-color="#4D92FF"/><stop offset="1" stop-color="#BB65FF"/></linearGradient><linearGradient id="paint1_linear_2563_8633" x1="240.859" y1="36.973" x2="273.834" y2="60.954" gradientUnits="userSpaceOnUse"><stop stop-color="#66D4F7"/><stop offset=".323" stop-color="#4D92FF"/><stop offset="1" stop-color="#BB65FF"/></linearGradient><linearGradient id="paint2_linear_2563_8633" x1="59.859" y1="43.101" x2="92.834" y2="67.081" gradientUnits="userSpaceOnUse"><stop stop-color="#66D4F7"/><stop offset=".323" stop-color="#4D92FF"/><stop offset="1" stop-color="#BB65FF"/></linearGradient><linearGradient id="paint3_linear_2563_8633" x1="31.859" y1="132.654" x2="64.834" y2="156.634" gradientUnits="userSpaceOnUse"><stop stop-color="#66D4F7"/><stop offset=".323" stop-color="#4D92FF"/><stop offset="1" stop-color="#BB65FF"/></linearGradient><linearGradient id="paint4_linear_2563_8633" x1="215.401" y1="207.352" x2="65.546" y2="50.431" gradientUnits="userSpaceOnUse"><stop stop-color="#fff" stop-opacity=".75"/><stop offset="1" stop-color="#fff"/></linearGradient><linearGradient id="paint5_linear_2563_8633" x1="185.102" y1="150.79" x2="184.845" y2="78.296" gradientUnits="userSpaceOnUse"><stop stop-color="#D7DEFB"/><stop offset=".792" stop-color="#fff"/></linearGradient><linearGradient id="paint6_linear_2563_8633" x1="161.502" y1="119.972" x2="173.319" y2="119.972" gradientUnits="userSpaceOnUse"><stop stop-color="#66D4F7"/><stop offset=".323" stop-color="#4D92FF"/><stop offset="1" stop-color="#BB65FF"/></linearGradient><linearGradient id="paint7_linear_2563_8633" x1="161.502" y1="119.972" x2="173.319" y2="119.972" gradientUnits="userSpaceOnUse"><stop stop-color="#66D4F7"/><stop offset=".323" stop-color="#4D92FF"/><stop offset="1" stop-color="#BB65FF"/></linearGradient><linearGradient id="paint8_linear_2563_8633" x1="126" y1="86.89" x2="116.181" y2="112.198" gradientUnits="userSpaceOnUse"><stop stop-color="#66D4F7"/><stop offset=".766" stop-color="#156FFF"/><stop offset="1" stop-color="#BB65FF"/></linearGradient><filter id="filter0_bd_2563_8633" x="87.814" y="7.995" width="136.508" height="214.205" filterUnits="userSpaceOnUse" color-interpolation-filters="sRGB"><feFlood flood-opacity="0" result="BackgroundImageFix"/><feGaussianBlur in="BackgroundImageFix" stdDeviation="2.184"/><feComposite in2="SourceAlpha" operator="in" result="effect1_backgroundBlur_2563_8633"/><feColorMatrix in="SourceAlpha" values="0 0 0 0 0 0 0 0 0 0 0 0 0 0 0 0 0 0 127 0" result="hardAlpha"/><feOffset dy="4.468"/><feGaussianBlur stdDeviation="11.171"/><feComposite in2="hardAlpha" operator="out"/><feColorMatrix values="0 0 0 0 0 0 0 0 0 0 0 0 0 0 0 0 0 0 0.1 0"/><feBlend in2="effect1_backgroundBlur_2563_8633" result="effect2_dropShadow_2563_8633"/><feBlend in="SourceGraphic" in2="effect2_dropShadow_2563_8633" result="shape"/></filter><filter id="filter1_b_2563_8633" x="109.571" y="25.285" width="92.806" height="164.68" filterUnits="userSpaceOnUse" color-interpolation-filters="sRGB"><feFlood flood-opacity="0" result="BackgroundImageFix"/><feGaussianBlur in="BackgroundImageFix" stdDeviation="1.644"/><feComposite in2="SourceAlpha" operator="in" result="effect1_backgroundBlur_2563_8633"/><feBlend in="SourceGraphic" in2="effect1_backgroundBlur_2563_8633" result="shape"/></filter><filter id="filter2_bd_2563_8633" x="84.702" y="39.99" width="141.601" height="140.8" filterUnits="userSpaceOnUse" color-interpolation-filters="sRGB"><feFlood flood-opacity="0" result="BackgroundImageFix"/><feGaussianBlur in="BackgroundImageFix" stdDeviation="19.2"/><feComposite in2="SourceAlpha" operator="in" result="effect1_backgroundBlur_2563_8633"/><feColorMatrix in="SourceAlpha" values="0 0 0 0 0 0 0 0 0 0 0 0 0 0 0 0 0 0 127 0" result="hardAlpha"/><feOffset dx=".8" dy="3.2"/><feGaussianBlur stdDeviation="4"/><feComposite in2="hardAlpha" operator="out"/><feColorMatrix values="0 0 0 0 0.393125 0 0 0 0 0.438812 0 0 0 0 0.85 0 0 0 0.25 0"/><feBlend in2="effect1_backgroundBlur_2563_8633" result="effect2_dropShadow_2563_8633"/><feBlend in="SourceGraphic" in2="effect2_dropShadow_2563_8633" result="shape"/></filter><filter id="filter3_d_2563_8633" x="123.002" y="81.39" width="64" height="63" filterUnits="userSpaceOnUse" color-interpolation-filters="sRGB"><feFlood flood-opacity="0" result="BackgroundImageFix"/><feColorMatrix in="SourceAlpha" values="0 0 0 0 0 0 0 0 0 0 0 0 0 0 0 0 0 0 127 0" result="hardAlpha"/><feOffset dy="2"/><feGaussianBlur stdDeviation="2.5"/><feComposite in2="hardAlpha" operator="out"/><feColorMatrix values="0 0 0 0 0.392157 0 0 0 0 0.439216 0 0 0 0 0.85098 0 0 0 0.15 0"/><feBlend in2="BackgroundImageFix" result="effect1_dropShadow_2563_8633"/><feBlend in="SourceGraphic" in2="effect1_dropShadow_2563_8633" result="shape"/></filter></defs></svg>