<svg width="30" height="31" fill="none" xmlns="http://www.w3.org/2000/svg"><g clip-path="url('#clip0_857_791')"><path d="M27.78.163H2.214C.99.163 0 1.13 0 2.325v25.67c0 1.195.99 2.168 2.215 2.168h25.564c1.225 0 2.221-.973 2.221-2.162V2.325C30 1.13 29.004.163 27.78.163ZM8.9 25.727H4.447v-14.32H8.9v14.32ZM6.674 9.456A2.58 2.58 0 0 1 4.09 6.878 2.58 2.58 0 0 1 6.674 4.3a2.578 2.578 0 0 1 0 5.156Zm18.89 16.271h-4.447v-6.96c0-1.659-.03-3.797-2.314-3.797-2.315 0-2.666 1.81-2.666 3.68v7.078h-4.442v-14.32h4.266v1.956h.059c.591-1.125 2.044-2.314 4.207-2.314 4.505 0 5.337 2.965 5.337 6.82v7.857Z" fill="#fff"/></g><defs><clipPath id="clip0_857_791"><path fill="#fff" transform="translate(0 .163)" d="M0 0h30v30H0z"/></clipPath></defs></svg>