<svg width="200" height="40" fill="none" xmlns="http://www.w3.org/2000/svg"><path d="M56.666 18.956c-1.18-.489-2.622-.896-4.325-1.223h-.036c-1.654-.3-2.895-.576-3.723-.828-.827-.25-1.477-.588-1.952-1.015-.475-.426-.712-1.015-.712-1.768 0-1.103.402-1.943 1.205-2.52.803-.576 1.86-.865 3.174-.865 1.436 0 2.597.376 3.486 1.129a4.213 4.213 0 0 1 1.465 2.574c.035.207.206.36.41.363l4.038.03a.426.426 0 0 0 .42-.47 8.204 8.204 0 0 0-1.334-3.795c-.84-1.266-1.995-2.25-3.467-2.953-1.472-.702-3.144-1.054-5.018-1.054-1.775 0-3.375.339-4.798 1.016-1.423.678-2.53 1.618-3.321 2.822-.791 1.203-1.186 2.557-1.186 4.062 0 1.655.352 2.984 1.058 3.987a6.664 6.664 0 0 0 2.773 2.276c1.143.514 2.517.921 4.123 1.223l.183.037c1.702.326 2.974.614 3.813.865.84.252 1.502.602 1.989 1.053.486.452.73 1.066.73 1.844 0 1.104-.438 1.968-1.314 2.595-.876.627-2.007.94-3.394.94-1.655 0-2.992-.432-4.014-1.297-.93-.788-1.477-1.798-1.641-3.032a.425.425 0 0 0-.41-.378l-4.032-.063a.426.426 0 0 0-.425.462c.114 1.517.575 2.884 1.38 4.102.889 1.342 2.11 2.395 3.668 3.16 1.557.765 3.345 1.147 5.365 1.147 1.873 0 3.551-.35 5.036-1.053 1.483-.702 2.645-1.674 3.485-2.916.84-1.24 1.26-2.639 1.26-4.194 0-1.655-.366-2.99-1.096-4.007a6.535 6.535 0 0 0-2.863-2.256ZM81.463 29.094h-.63c-.365 0-.651-.1-.858-.301-.207-.2-.31-.527-.31-.978V20.63c0-2.282-.706-4.018-2.116-5.21-1.411-1.19-3.073-1.797-5.676-1.797-2.457 0-4.377.55-5.885 1.628-1.375.983-2.204 2.33-2.488 4.042a.43.43 0 0 0 .413.51h3.709a.417.417 0 0 0 .401-.311c.17-.634.543-1.15 1.12-1.551.67-.464 1.464-.696 2.51-.696 1.974 0 3.377 1.254 3.377 3.122v.584a.425.425 0 0 1-.42.432h-3.358c-2.725 0-4.793.552-6.204 1.655-1.41 1.104-2.116 2.671-2.116 4.702 0 1.756.644 3.135 1.934 4.137.968.752 2.124 1.186 3.314 1.377.91.145 1.844.198 2.756.047.955-.157 1.731-.563 2.508-1.142.697-.519 1.279-1.184 1.81-1.996.26-.459.939-.274.939.256v.638c0 1.16.91 2.099 2.035 2.099h3.235a.425.425 0 0 0 .42-.432v-3.199a.425.425 0 0 0-.42-.43Zm-6.432-3.874c0 .928-.19 1.736-.566 2.426-.79 1.445-2.205 2.2-3.796 2.2-.925 0-1.666-.225-2.226-.676-.56-.452-.84-1.054-.84-1.806 0-.852.311-1.51.931-1.975.62-.463 1.502-.696 2.646-.696h3.432c.231 0 .419.193.419.432v.095ZM94.984 6.837h-4.826c-2.546 0-4.61 2.127-4.61 4.751v2.088a.425.425 0 0 1-.42.432h-2.755a.425.425 0 0 0-.419.432v3.236c0 .239.188.432.42.432h2.755c.231 0 .419.193.419.432v14.085c0 .239.187.432.419.432h3.76a.425.425 0 0 0 .419-.432V18.64c0-.239.187-.432.419-.432h4.382c.231 0 .419-.193.419-.432V14.54a.425.425 0 0 0-.42-.432h-4.381a.425.425 0 0 1-.419-.432V11.8c0-.477.376-.864.838-.864h3.999a.425.425 0 0 0 .419-.431V7.268a.425.425 0 0 0-.418-.432ZM113.403 17.997a8.323 8.323 0 0 0-3.339-3.235c-1.41-.752-3.041-1.139-4.889-1.139-1.848 0-3.443.419-4.854 1.233-1.411.816-2.506 1.969-3.284 3.46-.778 1.494-1.168 3.242-1.168 5.248 0 2.007.402 3.681 1.204 5.173a8.286 8.286 0 0 0 3.449 3.442c1.495.802 3.253 1.204 5.273 1.204 1.557 0 2.949-.295 4.179-.884 1.227-.589 2.219-1.398 2.973-2.426a7.717 7.717 0 0 0 1.322-2.89.43.43 0 0 0-.408-.533h-3.777c-.181 0-.34.12-.398.298-.266.81-.736 1.451-1.409 1.921-.755.527-1.691.79-2.811.79-.924 0-1.733-.2-2.426-.602a4.316 4.316 0 0 1-1.642-1.693 5.265 5.265 0 0 1-.391-.903 6.488 6.488 0 0 1-.246-1.032 11.158 11.158 0 0 1-.05-.37.426.426 0 0 1 .416-.478h13.027a.422.422 0 0 0 .416-.379c.018-.159.031-.32.037-.487.012-.3.018-.576.018-.827 0-1.855-.408-3.486-1.222-4.89Zm-3.913 3.31h-8.159a.428.428 0 0 1-.41-.525 4.6 4.6 0 0 1 .677-1.6 4.107 4.107 0 0 1 1.606-1.41 4.773 4.773 0 0 1 2.152-.49c1.266 0 2.312.352 3.139 1.053.71.603 1.178 1.418 1.404 2.445a.43.43 0 0 1-.409.527ZM31.049 19.99h-3.577c-1.068 0-1.933.892-1.933 1.993v5.351c0 1.101-.866 1.993-1.934 1.993H9.377c-1.068 0-1.934.892-1.934 1.993v3.687c0 1.1.866 1.993 1.934 1.993h15.051c1.069 0 1.922-.892 1.922-1.993v-2.958c0-1.1.865-1.882 1.933-1.882h2.765c1.068 0 1.933-.892 1.933-1.993V21.96c0-1.1-.864-1.97-1.932-1.97ZM7.444 12.666c0-1.101.865-1.993 1.933-1.993h14.22c1.068 0 1.933-.892 1.933-1.993V4.993c0-1.1-.865-1.993-1.934-1.993H8.553c-1.068 0-1.934.892-1.934 1.993v2.84c0 1.102-.865 1.994-1.933 1.994H1.934C.865 9.827 0 10.719 0 11.82v6.22c0 1.102.87 1.949 1.937 1.949h3.577c1.068 0 1.933-.892 1.933-1.993l-.003-5.33ZM14.808 16.115h3.435c1.12 0 2.028.937 2.028 2.09v3.54c0 1.155-.909 2.091-2.028 2.091h-3.435c-1.12 0-2.028-.937-2.028-2.09v-3.541c0-1.154.91-2.09 2.028-2.09Z" fill="#000"/></svg>