<svg width="630" height="630" fill="none" xmlns="http://www.w3.org/2000/svg"><path d="M98.905 406.298c-6.575 0-11.905-5.33-11.905-11.905V266.099c0-9.608 7.79-17.397 17.398-17.397a17.396 17.396 0 0 1 15.514 9.525l46.617 91.867c.741 1.461 2.829 1.459 3.568-.003l46.409-91.845a17.386 17.386 0 0 1 15.516-9.544c9.602 0 17.385 7.783 17.385 17.385v128.306c0 6.575-5.33 11.905-11.905 11.905-6.575 0-11.905-5.33-11.905-11.905v-96.197c0-2.1-2.824-2.781-3.781-.911l-40.086 78.289a15.087 15.087 0 0 1-26.838.038l-40.304-78.159c-.961-1.864-3.777-1.181-3.777.916v96.024c0 6.575-5.33 11.905-11.906 11.905Z" fill="#fff"/><path d="M98.905 406.298c-6.575 0-11.905-5.33-11.905-11.905V266.099c0-9.608 7.79-17.397 17.398-17.397a17.396 17.396 0 0 1 15.514 9.525l46.617 91.867c.741 1.461 2.829 1.459 3.568-.003l46.409-91.845a17.386 17.386 0 0 1 15.516-9.544c9.602 0 17.385 7.783 17.385 17.385v128.306c0 6.575-5.33 11.905-11.905 11.905-6.575 0-11.905-5.33-11.905-11.905v-96.197c0-2.1-2.824-2.781-3.781-.911l-40.086 78.289a15.087 15.087 0 0 1-26.838.038l-40.304-78.159c-.961-1.864-3.777-1.181-3.777.916v96.024c0 6.575-5.33 11.905-11.906 11.905Z" fill="url('#paint0_linear_5315_63522')"/><path d="M288.77 406.298c-6.575 0-11.905-5.33-11.905-11.905V268.702c0-11.046 8.954-20 20-20h35.034c12.28 0 22.463 2.101 30.55 6.304 8.086 4.052 14.076 9.68 17.97 16.885 4.043 7.054 6.065 15.084 6.065 24.09 0 8.555-1.947 16.435-5.84 23.639-3.744 7.054-9.659 12.683-17.746 16.886-8.087 4.202-18.42 6.303-30.999 6.303h-31.224v51.584c0 6.575-5.33 11.905-11.905 11.905Zm11.905-91.076a8 8 0 0 0 8 8h22.101c11.231 0 19.243-2.401 24.035-7.204 4.942-4.953 7.413-11.632 7.413-20.037 0-8.706-2.471-15.46-7.413-20.263-4.792-4.953-12.804-7.429-24.035-7.429h-22.101a8 8 0 0 0-8 8v38.933Z" fill="#fff"/><path d="M288.77 406.298c-6.575 0-11.905-5.33-11.905-11.905V268.702c0-11.046 8.954-20 20-20h35.034c12.28 0 22.463 2.101 30.55 6.304 8.086 4.052 14.076 9.68 17.97 16.885 4.043 7.054 6.065 15.084 6.065 24.09 0 8.555-1.947 16.435-5.84 23.639-3.744 7.054-9.659 12.683-17.746 16.886-8.087 4.202-18.42 6.303-30.999 6.303h-31.224v51.584c0 6.575-5.33 11.905-11.905 11.905Zm11.905-91.076a8 8 0 0 0 8 8h22.101c11.231 0 19.243-2.401 24.035-7.204 4.942-4.953 7.413-11.632 7.413-20.037 0-8.706-2.471-15.46-7.413-20.263-4.792-4.953-12.804-7.429-24.035-7.429h-22.101a8 8 0 0 0-8 8v38.933Z" fill="url('#paint1_linear_5315_63522')"/><path d="M475.611 409c-15.574 0-29.052-3.377-40.433-10.131-11.232-6.904-19.917-16.435-26.057-28.593-6.14-12.307-9.21-26.491-9.21-42.551 0-16.21 3.07-30.394 9.21-42.551 6.14-12.308 14.825-21.913 26.057-28.818C446.559 249.452 460.037 246 475.611 246c18.42 0 33.47 4.503 45.151 13.508 7.715 5.949 13.569 13.469 17.56 22.561 3.333 7.593-3.025 15.262-11.317 15.262-6.151 0-11.242-4.398-14.062-9.864-2.419-4.689-5.728-8.68-9.927-11.974-6.889-5.403-16.099-8.105-27.63-8.105-15.724 0-28.153 5.403-37.288 16.21-9.135 10.657-13.702 25.366-13.702 44.127 0 18.612 4.567 33.246 13.702 43.902 9.135 10.657 21.564 15.985 37.288 15.985 11.531 0 20.741-2.552 27.63-7.655 4.135-3.063 7.407-6.803 9.815-11.218 2.924-5.36 7.974-9.72 14.08-9.72 8.319 0 14.672 7.736 11.159 15.277-3.984 8.553-9.753 15.693-17.308 21.421C509.081 404.572 494.031 409 475.611 409Z" fill="#fff"/><path d="M475.611 409c-15.574 0-29.052-3.377-40.433-10.131-11.232-6.904-19.917-16.435-26.057-28.593-6.14-12.307-9.21-26.491-9.21-42.551 0-16.21 3.07-30.394 9.21-42.551 6.14-12.308 14.825-21.913 26.057-28.818C446.559 249.452 460.037 246 475.611 246c18.42 0 33.47 4.503 45.151 13.508 7.715 5.949 13.569 13.469 17.56 22.561 3.333 7.593-3.025 15.262-11.317 15.262-6.151 0-11.242-4.398-14.062-9.864-2.419-4.689-5.728-8.68-9.927-11.974-6.889-5.403-16.099-8.105-27.63-8.105-15.724 0-28.153 5.403-37.288 16.21-9.135 10.657-13.702 25.366-13.702 44.127 0 18.612 4.567 33.246 13.702 43.902 9.135 10.657 21.564 15.985 37.288 15.985 11.531 0 20.741-2.552 27.63-7.655 4.135-3.063 7.407-6.803 9.815-11.218 2.924-5.36 7.974-9.72 14.08-9.72 8.319 0 14.672 7.736 11.159 15.277-3.984 8.553-9.753 15.693-17.308 21.421C509.081 404.572 494.031 409 475.611 409Z" fill="url('#paint2_linear_5315_63522')"/><rect x="10.5" y="10.5" width="609" height="609" rx="78.5" stroke="#66D4F7" stroke-width="21"/><path fill-rule="evenodd" clip-rule="evenodd" d="M630 188V89c0-49.153-39.847-89-89-89H89C39.847 0 0 39.847 0 89v99h21V89c0-37.555 30.445-68 68-68h452c37.555 0 68 30.445 68 68v99h21Z" fill="#fff"/><defs><linearGradient id="paint0_linear_5315_63522" x1="76" y1="254.5" x2="553.292" y2="246.543" gradientUnits="userSpaceOnUse"><stop stop-color="#66D4F7"/><stop offset=".323" stop-color="#4D92FF"/><stop offset="1" stop-color="#BB65FF"/></linearGradient><linearGradient id="paint1_linear_5315_63522" x1="76" y1="254.5" x2="553.292" y2="246.543" gradientUnits="userSpaceOnUse"><stop stop-color="#66D4F7"/><stop offset=".323" stop-color="#4D92FF"/><stop offset="1" stop-color="#BB65FF"/></linearGradient><linearGradient id="paint2_linear_5315_63522" x1="76" y1="254.5" x2="553.292" y2="246.543" gradientUnits="userSpaceOnUse"><stop stop-color="#66D4F7"/><stop offset=".323" stop-color="#4D92FF"/><stop offset="1" stop-color="#BB65FF"/></linearGradient></defs></svg>