<svg width="30" height="30" fill="none" xmlns="http://www.w3.org/2000/svg"><path d="M7.003 10.082 4.19 11.677a.145.145 0 0 0 0 .252l9.197 5.212a2.892 2.892 0 0 0 2.852 0l9.197-5.212a.145.145 0 0 0 0-.252l-2.814-1.595" stroke="#fff" stroke-linecap="round" stroke-linejoin="round"/><path d="M4.111 11.73v7.545c0 .826.47 1.58 1.21 1.945l8.532 4.209a2.17 2.17 0 0 0 1.919 0l8.531-4.209a2.17 2.17 0 0 0 1.21-1.945v-7.544" stroke="#fff"/><path d="M7.003 13.538v-8.17c0-.48.388-.868.868-.868h13.882c.479 0 .867.388.867.868v8.17" stroke="#1AC7FE"/><path d="M10.667 11.625c-.239 0-.449-.042-.629-.126a1.002 1.002 0 0 1-.424-.359c-.1-.155-.15-.34-.154-.555h.522a.628.628 0 0 0 .182.443c.118.121.284.182.499.182.19 0 .337-.045.442-.135a.446.446 0 0 0 .164-.354.459.459 0 0 0-.08-.28.564.564 0 0 0-.21-.177 1.855 1.855 0 0 0-.302-.126 23.443 23.443 0 0 1-.364-.121c-.252-.084-.441-.193-.569-.327a.742.742 0 0 1-.186-.526.847.847 0 0 1 .126-.48.888.888 0 0 1 .373-.317c.161-.078.35-.117.564-.117.211 0 .396.039.554.117a.88.88 0 0 1 .518.806h-.522a.512.512 0 0 0-.256-.429.594.594 0 0 0-.308-.074.586.586 0 0 0-.387.116c-.1.08-.15.193-.15.336 0 .127.038.225.112.293a.899.899 0 0 0 .308.173c.13.043.28.095.448.154.161.053.306.116.433.19a.858.858 0 0 1 .303.294.84.84 0 0 1 .117.462.896.896 0 0 1-.126.461.95.95 0 0 1-.378.346c-.168.087-.374.13-.62.13ZM12.331 11.57V8.305h1.058c.382 0 .696.067.942.2.248.134.432.324.55.57.121.242.182.53.182.866 0 .333-.06.622-.182.867-.118.243-.302.43-.55.564-.246.13-.56.196-.942.196h-1.058Zm.494-.42h.546c.295 0 .528-.049.699-.145a.822.822 0 0 0 .373-.415 1.63 1.63 0 0 0 .116-.648c0-.252-.039-.47-.116-.652a.82.82 0 0 0-.373-.42c-.171-.1-.404-.15-.7-.15h-.545v2.43ZM15.609 11.57V8.305h.494v1.398l1.286-1.398H18l-1.207 1.3 1.235 1.963h-.601l-.988-1.585-.336.364v1.221h-.494ZM19.326 11.625c-.292 0-.533-.072-.722-.214a.804.804 0 0 1-.326-.57h.498a.504.504 0 0 0 .177.276.572.572 0 0 0 .369.112c.149 0 .258-.031.326-.093a.283.283 0 0 0 .103-.215c0-.118-.049-.197-.145-.238a1.813 1.813 0 0 0-.392-.116 3.083 3.083 0 0 1-.391-.112.903.903 0 0 1-.322-.196.483.483 0 0 1-.126-.35c0-.201.078-.37.233-.503.156-.137.373-.205.653-.205.258 0 .466.062.625.186.161.125.256.3.284.527h-.475a.34.34 0 0 0-.14-.233.494.494 0 0 0-.303-.084.463.463 0 0 0-.29.08.231.231 0 0 0-.102.195c0 .081.047.145.14.191.096.047.222.089.378.126.155.034.298.075.428.121.134.044.241.11.322.196.081.087.121.215.121.383a.644.644 0 0 1-.247.526c-.164.14-.39.21-.676.21Z" fill="#1AC7FE"/></svg>