<svg version="1.1" id="Layer_1" xmlns="http://www.w3.org/2000/svg" x="0" y="0" viewBox="0 0 203.2 32.2" style="enable-background:new 0 0 203.2 32.2" xml:space="preserve"><path d="M59.3 24.9c0 .2-.1.3-.3.3h-.8c-1 0-1.6.1-1.7.5-.1.3-.1 1.2-.1 2.9v1.1c-1.1 1-2.2 1.6-3.3 2-1 .4-2.3.6-3.7.6-3.5 0-6.2-1-8.3-3.1-2-2.1-3.1-4.9-3.1-8.5 0-3.6 1-6.5 3-8.7 2-2.2 4.6-3.3 7.9-3.3 1.4 0 3 .4 4.7 1.2.5.2.9.4 1.3.4s.7-.3.8-.8c.2-.5.3-.7.5-.7s.3.1.3.3c0 .1 0 .3-.1.7-.1 1.3-.2 2.2-.2 2.7v3.1c0 .5-.2.8-.4.8s-.3-.2-.3-.5c-.1-2.1-.7-3.8-1.8-5.1C52.6 9.6 51.1 9 49.3 9c-2.3 0-4.1 1-5.4 3.1-1.3 2.1-2 4.8-2 8.4 0 3.4.7 6.1 2 8.1 1.4 2 3.2 3 5.5 3 1.8 0 3-.5 3.6-1.5.3-.5.5-1.4.5-2.7 0-1.1-.1-1.7-.3-1.9-.2-.2-.9-.3-2.2-.3h-.6c-.1 0-.1-.1-.1-.2 0-.2.2-.4.7-.4h7.8c.3 0 .5.1.5.3z"/><path d="M69.7 19.3c0 .5-.2.9-.5 1.3-.3.3-.7.5-1.2.5-.4 0-.7-.1-1-.3-.3-.2-.4-.5-.4-.9 0-.3.1-.6.3-.8.2-.2.3-.4.3-.5 0-.3-.2-.5-.7-.5-.6 0-1.1.4-1.6 1.1-.5.9-.8 2.6-.8 5v6.5c0 .3.1.4.3.5s.8.1 1.7.1c.2 0 .4.1.4.3 0 .2-.1.2-.4.2h-6.4c-.4 0-.5-.1-.5-.2s.1-.2.4-.2h.5c.7 0 1.2-.1 1.3-.3 0-.1.1-.5.1-1.2v-9.1c0-1.2-.2-1.9-.5-2.1s-.9-.3-1.7-.3c-.3 0-.4-.1-.4-.2 0-.2.1-.2.3-.2h1.6c.8 0 1.7-.2 2.7-.7l.4-.2.3-.1c.1.5.1 1.1.1 1.6v.7c.7-1.5 1.7-2.2 3-2.2.7 0 1.3.2 1.8.6.4.5.6 1 .6 1.6zM83.1 28.2c0 .2-.2.6-.5 1.2s-.7 1-1 1.4c-.9 1-2.2 1.5-3.8 1.5-2 0-3.6-.7-5-2.1-1.3-1.4-2-3.2-2-5.3 0-2.2.6-4 1.9-5.5 1.3-1.5 2.8-2.2 4.7-2.2 1.6 0 2.9.5 3.9 1.4 1.1.9 1.6 2.1 1.7 3.5-.7.1-1.6.2-2.8.1h-2.3c-.2 0-1.5 0-4 .1-.1.7-.2 1.4-.2 2.1 0 2.2.4 3.9 1.3 5.1.8 1.2 2 1.8 3.6 1.8.9 0 1.6-.2 2.1-.6.5-.4 1.1-1.2 1.7-2.3.1-.2.2-.3.4-.3.2-.1.3 0 .3.1zm-2.9-6.7c-.1-2.6-1-4-2.8-4-1.8 0-2.9 1.3-3.3 4h6.1zM97.3 28.2c0 .2-.2.6-.5 1.2s-.7 1-1 1.4c-.9 1-2.2 1.5-3.8 1.5-2 0-3.6-.7-5-2.1-1.3-1.4-2-3.2-2-5.3 0-2.2.6-4 1.9-5.5 1.3-1.5 2.8-2.2 4.7-2.2 1.6 0 2.9.5 3.9 1.4 1.1.9 1.6 2.1 1.7 3.5-.7.1-1.6.2-2.8.1h-2.3c-.2 0-1.5 0-4 .1-.1.6-.1 1.3-.1 1.9 0 2.2.4 3.9 1.3 5.1.8 1.2 2 1.8 3.6 1.8.9 0 1.6-.2 2.1-.6.5-.4 1.1-1.2 1.7-2.3.1-.2.2-.3.4-.3.1.1.2.2.2.3zm-2.9-6.7c-.1-2.6-1-4-2.8-4-1.8 0-2.9 1.3-3.3 4h6.1zM114.2 31.6c0 .2-.2.2-.5.2h-6c-.3 0-.4-.1-.4-.2s.1-.2.2-.2.5 0 1.3-.1c.4 0 .7-.1.7-.2.1-.1.1-.5.1-1.1v-6.3c0-2.4-.1-3.8-.3-4.3-.4-1-1.1-1.5-2.2-1.5s-2 .5-2.8 1.4c-.2.3-.3.7-.3 1.2V31c0 .3.2.4.7.4h1c.2 0 .3.1.3.2s-.1.2-.4.2H99.5c-.3 0-.5-.1-.5-.2s.2-.2.6-.3h.8c.3 0 .5-.1.6-.2l.1-.5v-7.2c0-2.5 0-3.9-.1-4.1 0-.3-.3-.4-.8-.4h-1c-.4 0-.7-.1-.7-.2 0-.2.2-.3.7-.3.7 0 1.4-.1 2.1-.4.8-.2 1.3-.5 1.6-.8.2-.2.4-.3.5-.3.2 0 .2.2.2.6v1.6c1.1-1.5 2.6-2.2 4.4-2.2 1.6 0 2.7.6 3.4 1.8.4.7.6 1.9.6 3.8V30c0 .7 0 1.1.1 1.2.1.1.5.2 1 .2H113.7c.4 0 .5.1.5.2zM139 31.6c0 .2-.2.3-.7.3H130c-.5 0-.7-.1-.7-.3 0-.2.3-.3 1-.3 1.1 0 1.8-.1 2-.4.1-.1.2-.8.2-2.2V11.6s-.1.4-.4 1.2c-.9 2.7-2.2 6.7-3.8 12l-1.5 5.3c-.3 1-.5 1.6-.7 1.6-.2 0-.3-.3-.5-.8-.6-2-2.4-7-5.4-15l-1.3-3.5V24.8c0 4 0 6.1.1 6.1.2.3.7.4 1.6.4.7 0 1.1.1 1.1.3 0 .2-.2.4-.7.4-.3 0-.6 0-.8-.1-.3 0-.6-.1-.8-.1l-3.8.1c-.4 0-.6-.1-.6-.3 0-.2.6-.3 1.9-.4.5 0 .8-.1.9-.3.1-.2.1-.7.1-1.7V13.4c0-1.8 0-2.8-.1-3-.1-.3-.3-.5-.6-.6-.3-.1-.9-.2-1.8-.3-.4 0-.5-.1-.5-.3 0-.2.3-.4 1-.4h5.1c.1.3.7 2 1.9 5.2.5 1.3 1.9 5.2 4.2 11.6.4-1.4.8-2.8 1.3-4.2l3.5-10.9c.2-.6.4-1.1.5-1.5h5c.7 0 1.1 0 1.3.1.1.1.2.2.2.3 0 .2-.2.3-.6.3-.6 0-1 0-1.3.1-.5.1-.9.3-1.1.5-.1.2-.2 1.4-.2 3.9v15.4c0 .9.1 1.4.3 1.6.3.2 1 .3 2.1.3h.2c.4-.2.7-.1.7.1zM153.4 30.3c0 .4-.4.8-1.2 1.2-.8.4-1.5.6-2.2.6-1.5 0-2.3-.8-2.4-2.3-.8 1.6-2.1 2.4-3.9 2.4-.9 0-1.7-.3-2.3-.8-.6-.6-.9-1.3-.9-2.2 0-1.8 1.1-3.2 3.2-4.3.7-.4 2-.7 3.9-1.1V23c0-1.9-.1-3.2-.3-3.8-.4-1.1-1.1-1.7-2.4-1.7-.8 0-1.4.2-1.9.6-.5.4-.8.9-.8 1.6 0 .2.1.3.4.3.3 0 .5.1.7.4s.3.6.3.9c0 1-.5 1.5-1.5 1.5-.5 0-.9-.2-1.3-.5s-.5-.8-.5-1.3c0-1 .4-1.9 1.2-2.7.9-.8 2.2-1.2 3.8-1.2 2.4 0 3.9.7 4.5 2 .2.5.3 1.5.3 3v8c.1.8.4 1.2 1 1.2s1.1-.2 1.5-.7c.2-.2.4-.4.5-.4.2-.1.3 0 .3.1zm-5.8-3.5v-2.4c-1.6.4-2.8.9-3.5 1.5-.7.6-1.1 1.4-1.1 2.4 0 .7.2 1.3.6 1.7.4.5.9.7 1.5.7.9 0 1.7-.5 2.2-1.6.2-.2.3-1 .3-2.3z"/><path d="M163.5 19.3c0 .5-.2.9-.5 1.3-.3.3-.7.5-1.2.5-.4 0-.7-.1-1-.3-.3-.2-.4-.5-.4-.9 0-.3.1-.6.3-.8.2-.2.3-.4.3-.5 0-.3-.2-.5-.7-.5-.6 0-1.1.4-1.6 1.1-.5.9-.8 2.6-.8 5v6.5c0 .3.1.4.3.5s.8.1 1.7.1c.2 0 .4.1.4.3 0 .2-.1.2-.4.2h-6.4c-.4 0-.5-.1-.5-.2s.1-.2.4-.2h.5c.7 0 1.2-.1 1.3-.3 0-.1.1-.5.1-1.2v-9.1c0-1.2-.2-1.9-.5-2.1s-.9-.3-1.7-.3c-.3 0-.4-.1-.4-.2 0-.2.1-.2.3-.2h1.6c.8 0 1.7-.2 2.7-.7l.4-.2.3-.1c.1.5.1 1.1.1 1.6v.7c.7-1.5 1.7-2.2 3-2.2.7 0 1.3.2 1.8.6.3.5.6 1 .6 1.6zM180.3 31.6c0 .2-.4.2-1.2.2h-1.8c-1.1 0-1.9-.1-2.3-.1h-2.6c-.2 0-.3-.1-.3-.2 0-.2.2-.3.6-.3 1.1 0 1.6-.2 1.6-.5s-1.8-2.5-5.5-6.6v6.7c0 .3.3.5.9.5h.9c.3 0 .4.1.4.2 0 .2-.2.3-.7.3h-5.7c-.5 0-.8-.1-.8-.3 0-.1 0-.2.1-.2s.5 0 1.1-.1c.5 0 .8-.1.8-.4 0-.2.1-.7.1-1.7V10.4c0-.2-.4-.2-1-.2h-.8c-.2 0-.4-.1-.4-.2s.3-.2.8-.2c1.1 0 2.2-.3 3.3-1 .3-.2.4-.2.5-.2.2 0 .4.9.4 2.7v12.2c3.6-3.2 5.3-4.9 5.3-5.3 0-.1-.4-.2-1.3-.2h-1c-.4 0-.6-.1-.6-.3 0-.2.3-.3 1-.3h6c.1 0 .2.1.2.2 0 .2-.5.2-1.6.3-.7 0-1.2.1-1.4.2-.3.2-.5.4-.8.6l-4.1 4c3.1 3.4 5.2 5.8 6.5 7.4.5.6.9 1 1.3 1.2.2.1.8.2 1.6.1.4-.1.5 0 .5.2zM192.3 28.2c0 .2-.2.6-.5 1.2s-.7 1-1 1.4c-.9 1-2.2 1.5-3.8 1.5-2 0-3.6-.7-5-2.1-1.3-1.4-2-3.2-2-5.3 0-2.2.6-4 1.9-5.5 1.3-1.5 2.8-2.2 4.7-2.2 1.6 0 2.9.5 3.9 1.4 1.1.9 1.6 2.1 1.7 3.5-.7.1-1.6.2-2.8.1h-2.3c-.2 0-1.5 0-4 .1-.1.7-.2 1.4-.2 2.1 0 2.2.4 3.9 1.3 5.1.8 1.2 2 1.8 3.6 1.8.9 0 1.6-.2 2.1-.6.5-.4 1.1-1.2 1.7-2.3.1-.2.2-.3.4-.3.2-.1.3 0 .3.1zm-2.9-6.7c-.1-2.6-1-4-2.8-4-1.8 0-2.9 1.3-3.3 4h6.1zM203.2 29.9c0 .2-.3.6-.8 1.1-.9.9-2.1 1.3-3.4 1.3-1.2 0-2.1-.3-2.7-.9-.4-.4-.5-1.4-.5-3.1v-9.8c0-.2-.1-.3-.4-.4h-1.3c-.5 0-.7-.1-.7-.2 0-.2.1-.2.4-.3 1.7-.2 3-1 4-2.5.1-.2.3-.3.5-.3s.2.1.2.2v.7c0 .9 0 1.5.1 1.8.2 0 .5.1 1 .1 1.2 0 2-.1 2.4-.2h.2c.2 0 .3.1.3.3 0 .3-.9.5-2.7.5h-1.4v6.1c0 3.1.1 5 .2 5.8.2.8.7 1.2 1.5 1.2.7 0 1.5-.4 2.4-1.2.1-.1.2-.2.3-.2.3-.2.4-.1.4 0zM10.4 23c.1-.1.1-.3.2-.4.4-1 .7-2 1.1-2.9.7-1.7 1.6-3.4 2.3-5.1.5-1 .5-2.1.3-3.2-.3-1.4-1.2-2.5-2.2-3.6-1.2-1.2-2.7-2-4-2.9-1.6-1-3.1-2.1-4.3-3.6-.3-.4-.6-.8-1-1.3-.1.2-.2.3-.2.4-.4 1.2-.9 2.3-1.2 3.5C.9 5.8.4 7.7.2 9.6c-.3 2.3-.3 4.7.1 7 .3 1.8.9 3.4 1.7 5 1.5 3 3.4 5.6 5.8 7.9.8.8 1.7 1.6 2.6 2.3l.1-.1c0-.1 0-.2-.1-.4-1-2.2-2.1-4.3-3.1-6.5-.9-2-1.8-4-2.3-6.1-.4-1.5-.4-3-.3-4.7 1 2.6 2.1 5 3.7 7.1.6.8 1.1 1.5 2 1.9zM21.9 21.2c1.6-2.1 2.8-4.5 3.7-7.1 0 1.7 0 3.2-.3 4.7-.5 2.1-1.3 4.1-2.3 6.1-1 2.2-2.1 4.3-3.1 6.5-.1.1-.1.2-.1.4l.1.1c.9-.8 1.8-1.5 2.6-2.3 2.4-2.3 4.3-5 5.8-7.9.8-1.6 1.4-3.2 1.7-4.9.4-2.3.4-4.7.1-7-.2-1.9-.7-3.8-1.2-5.7-.3-1.2-.8-2.3-1.2-3.5 0-.1-.2-.2-.3-.4-.3.5-.6.9-.9 1.3-1.2 1.5-2.7 2.6-4.3 3.6-1.4.9-2.9 1.7-4 2.9-1 1.1-1.9 2.2-2.2 3.7-.2 1.1-.1 2.2.3 3.2.8 1.7 1.6 3.4 2.3 5.1.4.9.7 1.9 1.1 2.9 0 .1.1.2.2.4.9-.7 1.5-1.4 2-2.1z"/></svg>