<svg width="170" height="171" fill="none" xmlns="http://www.w3.org/2000/svg"><path opacity=".1" fill-rule="evenodd" clip-rule="evenodd" d="M29 122.39v-114h112v142l-.038-.02.036-.022-6.251-3.568-.216.127-.031-.017-1.196.736-12.105 7.092-11.917-6.81.028-.017 6.54-3.83 5.7-3.342-6.251-3.577-12.277 7.189-19.926-11.386c2.51-1.984 4.202-4.201 5.067-6.507 1.13-2.99.877-6.125-.758-9.052-1.437-2.556-3.912-4.959-7.444-6.982-.487-.28-.984-.542-1.49-.795-5.61-2.8-12.583-4.201-19.548-4.201-7.723 0-15.438 1.717-21.291 5.149-2.06 1.211-3.749 2.548-5.059 3.966-2.29 2.448-3.477 5.154-3.567 7.868L29 122.39Z" fill="url('#paint0_linear_2668_112047')"/><path fill-rule="evenodd" clip-rule="evenodd" d="m134.749 49.758-13.568 7.949-11.914-6.811 6.585-3.858 5.7-3.342-6.251-3.577-12.294 7.2-19.928-11.382c2.52-1.987 4.219-4.21 5.086-6.522 1.13-2.99.876-6.125-.759-9.051-1.436-2.557-3.911-4.96-7.443-6.983-11.77-6.712-30.722-6.648-42.33.154-7.136 4.182-9.845 9.927-8.138 15.302 1.066 3.378 3.866 6.594 8.4 9.186 5.375 3.08 12.259 4.734 19.26 4.969 6.919.244 13.947-.913 19.746-3.442l15.401 8.807 12.99 7.426 7.127 4.064 8.835 5.05L141 53.326l-6.251-3.569ZM56.387 37.852c-4.499-.316-8.853-1.463-12.313-3.442-2.357-1.346-4.056-2.936-5.085-4.625-2.602-4.282-.985-9.232 4.896-12.673 8.202-4.806 21.589-4.851 29.9-.109 2.673 1.527 4.489 3.37 5.464 5.33 1.139 2.312 1.084 4.787-.18 7.082-.596 1.093-1.473 2.15-2.62 3.134a17.449 17.449 0 0 1-2.484 1.753c-4.779 2.8-11.319 3.983-17.579 3.55Z" fill="url('#paint1_radial_2668_112047')" fill-opacity=".38"/><path fill-rule="evenodd" clip-rule="evenodd" d="m141 53.326-19.746 11.571-10.64-6.07-.677-3.92-35.972-20.605a17.449 17.449 0 0 0 2.484-1.753c1.147-.984 2.024-2.041 2.62-3.134 1.264-2.295 1.319-4.77.18-7.082-.975-1.96-2.79-3.803-5.465-5.33-8.31-4.742-21.697-4.697-29.9.109-5.88 3.441-7.497 8.392-4.895 12.673l-9.494-.948c-1.707-5.375 1.002-11.12 8.139-15.302 11.607-6.802 30.559-6.866 42.329-.154 3.532 2.024 6.007 4.426 7.443 6.983 1.635 2.926 1.888 6.06.76 9.05-.868 2.313-2.566 4.535-5.087 6.523l19.928 11.382 12.294-7.2 6.251 3.577-5.7 3.343-6.585 3.857 11.914 6.81 13.568-7.949L141 53.327Z" fill="url('#paint2_linear_2668_112047')"/><path fill-rule="evenodd" clip-rule="evenodd" d="m134.748 98.269-13.567 7.949-11.915-6.811 6.585-3.857 5.7-3.343-6.251-3.577-12.294 7.2-19.927-11.382c2.52-1.987 4.218-4.21 5.085-6.522 1.13-2.99.877-6.124-.758-9.051-1.437-2.556-3.912-4.96-7.444-6.983-5.835-3.333-13.441-4.995-21.038-4.995-7.597 0-15.438 1.716-21.291 5.149-2.06 1.21-3.749 2.547-5.059 3.965-3.27 3.496-4.29 7.516-3.08 11.337 1.066 3.378 3.866 6.594 8.4 9.187 5.376 3.08 12.259 4.733 19.26 4.968 6.919.244 13.947-.912 19.746-3.442l15.402 8.808 12.989 7.425 5.321 3.035 1.806 1.03 8.835 5.049 19.746-11.571-6.251-3.568Zm-55.68-20.343c-.596 1.093-1.472 2.15-2.62 3.135a17.452 17.452 0 0 1-2.484 1.752c-4.778 2.8-11.318 3.984-17.578 3.55-4.499-.316-8.853-1.463-12.312-3.442-2.358-1.346-4.056-2.935-5.086-4.625-1.915-3.152-1.545-6.675 1.13-9.683.966-1.075 2.212-2.087 3.766-2.99 4.137-2.42 9.584-3.631 15.04-3.631 5.456 0 10.74 1.174 14.86 3.523 2.673 1.526 4.49 3.369 5.465 5.33 1.138 2.312 1.084 4.787-.181 7.081Z" fill="url('#paint3_radial_2668_112047')" fill-opacity=".38"/><path fill-rule="evenodd" clip-rule="evenodd" d="m115.851 95.55-6.585 3.857 1.346 7.922-5.321-3.035-12.99-7.425L76.9 88.06c-5.8 2.53-12.827 3.686-19.746 3.442-7.001-.235-13.884-1.888-19.26-4.968-4.534-2.593-7.334-5.809-8.4-9.187-1.21-3.821-.19-7.84 3.08-11.337l7.543 2.602c-2.674 3.008-3.044 6.53-1.13 9.683 1.03 1.69 2.729 3.28 5.087 4.625 3.46 1.979 7.813 3.126 12.312 3.442 6.26.434 12.8-.75 17.578-3.55a17.452 17.452 0 0 0 2.484-1.752c1.148-.985 2.024-2.042 2.62-3.135 1.265-2.294 1.319-4.77.18-7.082-.975-1.96-2.79-3.803-5.464-5.33-4.12-2.348-9.494-3.522-14.86-3.522v-5.095c7.597 0 15.203 1.662 21.038 4.995 3.532 2.024 6.007 4.426 7.444 6.983 1.635 2.927 1.887 6.061.758 9.051-.867 2.313-2.565 4.535-5.085 6.522l19.927 11.382 12.294-7.2 6.251 3.578-5.7 3.342Z" fill="url('#paint4_linear_2668_112047')"/><path fill-rule="evenodd" clip-rule="evenodd" d="m134.748 146.78-13.567 7.949-11.915-6.811.045-.027 6.54-3.83 5.7-3.342-6.251-3.577-12.294 7.199-19.927-11.381c2.52-1.988 4.218-4.21 5.085-6.522 1.13-2.99.877-6.125-.758-9.052-1.437-2.556-3.912-4.959-7.444-6.982-.487-.28-.984-.542-1.49-.795-5.61-2.8-12.583-4.201-19.548-4.201-7.723 0-15.438 1.717-21.291 5.149-2.06 1.211-3.749 2.548-5.059 3.966-3.27 3.496-4.29 7.515-3.08 11.336 1.066 3.379 3.866 6.595 8.4 9.187 5.376 3.081 12.259 4.734 19.26 4.968 6.919.244 13.947-.912 19.746-3.441l15.402 8.807 12.989 7.425 5.321 3.036 1.806 1.029 8.835 5.05 19.746-11.572-6.251-3.568Zm-60.784-15.455c-4.778 2.8-11.318 3.983-17.578 3.55-4.499-.317-8.853-1.464-12.312-3.442-2.358-1.346-4.056-2.936-5.086-4.625-1.915-3.153-1.545-6.676 1.13-9.684.966-1.075 2.212-2.086 3.766-2.99 4.137-2.42 9.584-3.631 15.04-3.631 5.456 0 10.74 1.174 14.86 3.523a16.285 16.285 0 0 1 2.908 2.078c1.139 1.011 1.988 2.113 2.557 3.252 1.138 2.312 1.084 4.787-.181 7.082-.596 1.093-1.472 2.15-2.62 3.134-.397.334-.822.669-1.282.985-.38.262-.777.515-1.202.768Z" fill="url('#paint5_radial_2668_112047')" fill-opacity=".38"/><path fill-rule="evenodd" clip-rule="evenodd" d="m140.999 150.348-19.746 11.572-8.835-5.05-1.806-1.029-5.321-3.036-12.99-7.425-15.4-8.807c-5.8 2.529-12.828 3.685-19.747 3.441-7.001-.234-13.884-1.887-19.26-4.968-4.534-2.592-7.334-5.808-8.4-9.187-1.21-3.821-.19-7.84 3.08-11.336 1.31-1.418 3-2.755 5.059-3.966 5.853-3.432 13.568-5.149 21.291-5.149 6.965 0 13.938 1.401 19.548 4.201l-1.78 6.495a16.285 16.285 0 0 0-2.908-2.078c-4.12-2.349-9.494-3.523-14.86-3.523s-10.903 1.211-15.04 3.631c-1.554.904-2.8 1.915-3.767 2.99-2.674 3.008-3.044 6.531-1.13 9.684 1.03 1.689 2.729 3.279 5.087 4.625 3.46 1.978 7.813 3.125 12.312 3.442 6.26.433 12.8-.75 17.578-3.55-.38.262.425-.253 0 0l29.786 16.987 5.561-.421-.045.027 11.915 6.811 13.567-7.949 6.251 3.568Z" fill="url('#paint6_linear_2668_112047')"/><defs><linearGradient id="paint0_linear_2668_112047" x1="85" y1="154.718" x2="85" y2="8.39" gradientUnits="userSpaceOnUse"><stop stop-color="#1AC7FE"/><stop offset=".76" stop-color="#1AC7FE" stop-opacity="0"/></linearGradient><linearGradient id="paint2_linear_2668_112047" x1="292" y1="129.39" x2="156.89" y2="-107.628" gradientUnits="userSpaceOnUse"><stop stop-color="#DA8CFF"/><stop offset=".487" stop-color="#AF93FF" stop-opacity=".97"/><stop offset=".668" stop-color="#035FE9" stop-opacity=".56"/><stop offset=".888" stop-color="#507EF5" stop-opacity=".98"/></linearGradient><linearGradient id="paint4_linear_2668_112047" x1="122" y1="93.89" x2="10.975" y2="-42.51" gradientUnits="userSpaceOnUse"><stop stop-color="#DA8CFF"/><stop offset=".234" stop-color="#AF93FF" stop-opacity=".71"/><stop offset=".563" stop-color="#035FE9" stop-opacity=".87"/><stop offset=".888" stop-color="#5E8BFF" stop-opacity=".6"/></linearGradient><linearGradient id="paint6_linear_2668_112047" x1="368.5" y1="263.89" x2="190.776" y2="-34.108" gradientUnits="userSpaceOnUse"><stop stop-color="#DA8CFF"/><stop offset=".512" stop-color="#AF93FF" stop-opacity=".4"/><stop offset=".69" stop-color="#1AC7FE" stop-opacity=".66"/><stop offset=".907" stop-color="#497CFF"/></linearGradient><radialGradient id="paint1_radial_2668_112047" cx="0" cy="0" r="1" gradientUnits="userSpaceOnUse" gradientTransform="matrix(-110.44604 -76.6677 90.57758 -130.48435 159.683 77.605)"><stop stop-color="#E6A9FF"/><stop offset=".59" stop-color="#34A9FF" stop-opacity=".57"/></radialGradient><radialGradient id="paint3_radial_2668_112047" cx="0" cy="0" r="1" gradientUnits="userSpaceOnUse" gradientTransform="rotate(-145.23 99.584 38.06) scale(134.449 158.848)"><stop stop-color="#E6A9FF"/><stop offset=".59" stop-color="#34A9FF" stop-opacity=".57"/></radialGradient><radialGradient id="paint5_radial_2668_112047" cx="0" cy="0" r="1" gradientUnits="userSpaceOnUse" gradientTransform="rotate(-145.23 107.179 62.317) scale(134.449 158.848)"><stop stop-color="#E6A9FF"/><stop offset=".59" stop-color="#34A9FF" stop-opacity=".57"/></radialGradient></defs></svg>