<svg width="432" height="72" fill="none" xmlns="http://www.w3.org/2000/svg"><g clip-path="url('#clip0_259_262')" fill-rule="evenodd" clip-rule="evenodd" fill="#fff"><path d="M224.345 61.437c2.225 1.138 4.674 1.707 7.345 1.707 4.798 0 8.854-1.88 12.168-5.64 3.413-3.759 5.12-8.334 5.12-13.726 0-5.342-1.707-9.918-5.12-13.726-3.314-3.76-7.37-5.64-12.168-5.64-2.671 0-5.12.57-7.345 1.707-1.258.658-2.358 1.439-3.292 2.344-.587.57-1.776.18-1.776-.638V9.833c0-.555-.45-1.004-1.005-1.004h-4.795c-.554 0-1.004.45-1.004 1.004v51.119c0 .555.45 1.004 1.004 1.004h4.818c.554 0 1.004-.45 1.004-1.004v-1.22c0-.819 1.186-1.206 1.772-.635.926.903 2.018 1.683 3.274 2.34Zm14.468-8.236c-2.226 2.473-4.971 3.71-8.236 3.71-3.314 0-6.084-1.212-8.31-3.636-2.176-2.473-3.265-5.639-3.265-9.497 0-3.809 1.089-6.95 3.265-9.423 2.226-2.473 4.996-3.71 8.31-3.71 3.265 0 6.01 1.237 8.236 3.71 2.226 2.473 3.339 5.614 3.339 9.423 0 3.858-1.113 7-3.339 9.423Zm-63.003 4.452c3.462 3.66 7.865 5.49 13.207 5.49 3.66 0 6.925-.865 9.794-2.596a17.923 17.923 0 0 0 6.246-6.18c.333-.547.103-1.25-.472-1.53l-4.078-1.99c-.537-.262-1.18-.058-1.504.443-2.421 3.747-5.65 5.62-9.689 5.62-3.166 0-5.887-1.087-8.162-3.264-2.009-1.921-3.169-4.382-3.482-7.383-.069-.668.475-1.224 1.147-1.224h26.203c.645 0 1.189-.488 1.217-1.133.214-5.026-1.418-10.551-4.829-14.225-3.166-3.512-7.445-5.268-12.836-5.268-5.244 0-9.547 1.854-12.911 5.564-3.363 3.66-5.045 8.261-5.045 13.801 0 5.59 1.731 10.215 5.194 13.875Zm3.787-18.253c-.763 0-1.333-.709-1.092-1.432.67-2.01 1.751-3.66 3.241-4.949 1.879-1.582 4.105-2.374 6.677-2.374 3.117 0 5.59.841 7.42 2.523 1.553 1.348 2.531 3 2.937 4.956.141.68-.415 1.276-1.111 1.276h-18.072Zm-12.089-13.8c.724 0 1.238.705 1.015 1.394l-11.035 34.223c-.142.44-.552.74-1.015.74h-5.422c-.462 0-.872-.299-1.015-.739l-7.853-24.203c-.301-.927-1.613-.926-1.912.002l-7.787 24.2c-.142.44-.553.74-1.016.74h-5.346c-.463 0-.873-.3-1.015-.74l-11.035-34.223a1.067 1.067 0 0 1 1.015-1.394h4.86c.473 0 .89.311 1.024.765l6.952 23.6c.278.945 1.609.967 1.917.031l7.803-23.663a1.067 1.067 0 0 1 1.013-.733h5.503c.462 0 .871.296 1.015.735l7.732 23.646c.307.937 1.64.917 1.918-.029l6.949-23.587c.134-.454.55-.765 1.024-.765h4.711Zm219.926 36.95c-2.967 0-5.441-.915-7.419-2.745-1.929-1.83-2.919-4.378-2.968-7.643V32.837c0-.555-.45-1.005-1.004-1.005h-4.373c-.554 0-1.004-.45-1.004-1.004v-4.224c0-.555.45-1.004 1.004-1.004h4.373c.554 0 1.004-.45 1.004-1.005V9.833c0-.555.45-1.004 1.004-1.004h4.818c.554 0 1.004.45 1.004 1.004v14.762c0 .555.45 1.005 1.004 1.005h6.895c.555 0 1.005.45 1.005 1.004v4.224c0 .555-.45 1.004-1.005 1.004h-6.895c-.554 0-1.004.45-1.004 1.005v17.1c0 2.423.47 4.08 1.41 4.97.94.842 2.003 1.262 3.19 1.262.544 0 1.064-.05 1.558-.148.161-.044.316-.09.468-.138.558-.177 1.183.09 1.378.642l1.457 4.12c.184.52-.085 1.095-.617 1.245-1.558.44-3.319.66-5.283.66Zm-99.935-14.988c0 4.452-1.657 8.162-4.971 11.13-3.265 2.968-7.321 4.452-12.168 4.452-3.809 0-7.247-1.138-10.314-3.414-2.85-2.171-4.852-4.943-6.006-8.315a1.085 1.085 0 0 1 .628-1.346l4.126-1.72c.626-.26 1.336.087 1.564.726.799 2.237 1.957 4.008 3.472 5.313 1.831 1.484 4.007 2.226 6.53 2.226 2.77 0 5.169-.865 7.197-2.597 1.978-1.78 2.968-3.932 2.968-6.455s-1.039-4.65-3.117-6.38c-2.028-1.732-4.476-2.598-7.345-2.598h-3.248a1.13 1.13 0 0 1-1.13-1.13v-4.12c0-.625.506-1.13 1.13-1.13h2.729c2.72 0 4.946-.743 6.677-2.227 1.731-1.533 2.597-3.512 2.597-5.935 0-2.226-.816-4.032-2.448-5.417-1.633-1.385-3.784-2.077-6.456-2.077-3.925 0-6.719 1.832-8.381 5.496-.268.59-.95.894-1.548.642l-4.218-1.787c-.554-.235-.831-.865-.59-1.416 1.163-2.662 2.934-4.852 5.314-6.57 2.672-1.93 5.813-2.895 9.423-2.895 4.502 0 8.286 1.336 11.353 4.007 3.017 2.572 4.526 5.911 4.526 10.017 0 4.33-1.779 8.021-5.337 10.46-.594.407-.578 1.345.05 1.697 2.974 1.667 3.987 2.983 4.693 4.018 1.533 2.176 2.3 4.625 2.3 7.345Zm14.858-1.706c-1.83 1.335-2.745 2.992-2.745 4.97 0 1.782.742 3.265 2.226 4.453 1.533 1.187 3.314 1.78 5.342 1.78 2.869 0 5.416-1.063 7.642-3.19 2.13-1.99 3.263-4.307 3.399-6.947a1 1 0 0 0-.424-.874c-2.09-1.464-4.912-2.196-8.465-2.196-2.77 0-5.095.668-6.975 2.004Zm6.084-21.443c5.046 0 9.028 1.36 11.946 4.08 2.918 2.672 4.378 6.357 4.378 11.056v21.403c0 .555-.45 1.004-1.005 1.004h-4.817c-.555 0-1.004-.45-1.004-1.004v-4.041c-2.82 4.155-6.579 6.233-11.278 6.233-4.007 0-7.371-1.188-10.091-3.562-2.671-2.374-4.007-5.342-4.007-8.904 0-3.759 1.41-6.752 4.229-8.977 2.869-2.226 6.678-3.34 11.427-3.34 3.297 0 6.12.49 8.469 1.471.71.297 1.547-.199 1.481-.965-.192-2.23-.862-4.205-2.753-5.847-1.88-1.682-4.081-2.523-6.604-2.523-3.49 0-6.317 1.35-8.478 4.05-.336.42-.932.547-1.387.26l-4.306-2.71c-.485-.306-.618-.957-.264-1.408 3.293-4.184 7.981-6.276 14.064-6.276Zm54.86 37.543c.59 0 1.067-.478 1.067-1.067V26.667c0-.59-.477-1.067-1.067-1.067h-4.692c-.589 0-1.067.477-1.067 1.067v19.04c0 3.067-.915 5.713-2.745 7.94-1.83 2.176-4.106 3.264-6.826 3.264-5.837 0-8.83-2.968-8.978-8.904v-21.34c0-.59-.478-1.067-1.067-1.067h-4.692c-.589 0-1.067.477-1.067 1.067v21.785c0 4.7 1.187 8.335 3.561 10.907 2.424 2.523 5.862 3.785 10.314 3.785 2.325 0 4.551-.594 6.678-1.781 1.214-.663 2.251-1.417 3.111-2.264.548-.54 1.711-.17 1.711.598v1.192c0 .59.478 1.067 1.067 1.067h4.692ZM400.637 8.83c-.555 0-1.005.45-1.005 1.004v51.119c0 .555.45 1.004 1.005 1.004h4.817c.555 0 1.004-.45 1.004-1.004V42.146c0-3.067.94-5.738 2.82-8.014 1.929-2.324 4.279-3.487 7.049-3.487 5.787 0 8.681 3.265 8.681 9.794v20.513c0 .555.449 1.004 1.004 1.004h4.817c.555 0 1.005-.45 1.005-1.004V39.104c0-4.7-1.212-8.31-3.636-10.833-2.374-2.572-5.787-3.858-10.239-3.858-2.325 0-4.575.593-6.752 1.78-1.183.66-2.198 1.413-3.045 2.257-.544.543-1.704.178-1.704-.591V9.833c0-.555-.449-1.004-1.004-1.004h-4.817ZM77.221 57.022c-.532 1.985-3.349 1.985-3.88 0l-6.196-23.12a2.638 2.638 0 0 1 0-1.366l5.49-20.489a4.143 4.143 0 0 1 4.002-3.07h8.058c2.725 0 4.707 2.583 4.002 5.215l-11.476 42.83Zm-53.154-23.16c.12-.447.12-.917 0-1.364l-5.48-20.45a4.143 4.143 0 0 0-4.002-3.071H6.527c-2.724 0-4.707 2.583-4.002 5.215l11.466 42.791c.532 1.985 3.349 1.985 3.88 0l6.196-23.12ZM41.52 61.68a1.067 1.067 0 0 0 1.03 1.343h6.146c.701 0 1.212-.665 1.03-1.343l-3.072-11.468c-.283-1.054-1.78-1.054-2.062 0L41.52 61.68Z"/><path d="M35.4 69.022A4.017 4.017 0 0 1 31.52 72H23.2c-2.641 0-4.564-2.506-3.88-5.057L36.385 3.257A4.394 4.394 0 0 1 40.63 0h9.9a4.394 4.394 0 0 1 4.244 3.257l17.064 63.686C72.522 69.494 70.6 72 67.959 72H59.64a4.017 4.017 0 0 1-3.88-2.978l-8.3-30.975c-.516-1.923-3.245-1.923-3.76 0l-8.3 30.975ZM77.245 57.022c-.532 1.985-3.35 1.985-3.881 0L67.169 33.9a2.636 2.636 0 0 1 0-1.365l7.895-29.465A4.143 4.143 0 0 1 79.066 0h8.058c2.724 0 4.707 2.584 4.002 5.215L77.244 57.022ZM24.09 33.862c.12-.447.12-.917 0-1.364L16.205 3.07A4.143 4.143 0 0 0 12.204 0H4.145C1.421 0-.562 2.584.143 5.215l13.872 51.768c.531 1.985 3.348 1.985 3.88 0l6.195-23.12Z"/></g><defs><clipPath id="clip0_259_262"><path fill="#fff" d="M0 0h432v72H0z"/></clipPath></defs></svg>