<svg width="405" height="72" fill="none" xmlns="http://www.w3.org/2000/svg"><path fill-rule="evenodd" clip-rule="evenodd" d="M204.664 62.526c-2.668 0-5.113-.555-7.336-1.666-1.254-.642-2.343-1.404-3.269-2.286-.584-.558-1.769-.18-1.769.62v1.192a.992.992 0 0 1-1.003.98h-4.81a.992.992 0 0 1-1.003-.98V10.455a.992.992 0 0 1 1.003-.981h4.788a.993.993 0 0 1 1.003.98V28.03c0 .799 1.187 1.18 1.773.623.933-.884 2.031-1.647 3.287-2.29 2.223-1.11 4.668-1.666 7.336-1.666 4.791 0 8.841 1.836 12.151 5.508 3.408 3.72 5.112 8.19 5.112 13.407 0 5.267-1.704 9.736-5.112 13.408-3.31 3.672-7.36 5.508-12.151 5.508Zm-1.112-6.087c3.26 0 6.002-1.208 8.225-3.624 2.222-2.367 3.334-5.435 3.334-9.204 0-3.72-1.112-6.788-3.334-9.204-2.223-2.416-4.965-3.624-8.225-3.624-3.309 0-6.075 1.208-8.298 3.624-2.174 2.416-3.26 5.484-3.26 9.204 0 3.769 1.086 6.86 3.26 9.277 2.223 2.367 4.989 3.55 8.298 3.55Zm-41.502 6.087c-5.334 0-9.73-1.787-13.188-5.363-3.458-3.575-5.187-8.092-5.187-13.552 0-5.411 1.68-9.904 5.039-13.48 3.359-3.623 7.656-5.435 12.892-5.435 5.384 0 9.657 1.715 12.818 5.145 3.407 3.589 5.036 8.986 4.822 13.895-.027.63-.571 1.107-1.215 1.107h-26.166c-.671 0-1.215.543-1.145 1.195.312 2.931 1.471 5.335 3.477 7.212 2.272 2.126 4.988 3.189 8.15 3.189 4.033 0 7.258-1.83 9.675-5.49.324-.49.967-.689 1.502-.433l4.073 1.943c.574.274.804.96.471 1.494a17.717 17.717 0 0 1-6.237 6.037c-2.865 1.691-6.125 2.536-9.781 2.536Zm-10.497-24.59c-.241.707.329 1.4 1.09 1.4h18.048c.694 0 1.249-.583 1.108-1.248-.404-1.91-1.382-3.524-2.932-4.84-1.828-1.643-4.297-2.465-7.409-2.465-2.569 0-4.792.773-6.669 2.32-1.488 1.258-2.566 2.87-3.236 4.833Zm-9.967-10.718c.221-.674-.292-1.363-1.015-1.363h-4.704c-.473 0-.889.305-1.022.748l-6.939 23.039c-.278.924-1.609.943-1.915.027l-7.722-23.095a1.064 1.064 0 0 0-1.013-.719h-5.496c-.46 0-.868.289-1.012.716l-7.791 23.114c-.308.913-1.637.893-1.915-.03L94.1 26.603a1.063 1.063 0 0 0-1.023-.748h-4.852c-.723 0-1.236.69-1.015 1.363l11.02 33.427c.142.43.551.722 1.014.722h5.338c.463 0 .873-.292 1.015-.723l7.776-23.637c.298-.906 1.608-.908 1.909-.002l7.842 23.641c.143.43.552.72 1.014.72h5.414c.462 0 .872-.29 1.014-.721l11.02-33.428ZM352.78 59.264c1.976 1.788 4.446 2.682 7.41 2.682 1.961 0 3.719-.215 5.275-.645.53-.146.8-.708.616-1.216l-1.455-4.024c-.195-.54-.819-.8-1.376-.627-.152.047-.307.091-.467.134a8.098 8.098 0 0 1-1.556.145c-1.186 0-2.248-.41-3.186-1.232-.939-.87-1.408-2.488-1.408-4.856V32.924a.992.992 0 0 1 1.003-.981h6.885a.992.992 0 0 0 1.003-.981v-4.126a.992.992 0 0 0-1.003-.98h-6.885a.992.992 0 0 1-1.003-.982v-14.42a.992.992 0 0 0-1.003-.98h-4.811a.993.993 0 0 0-1.003.98v14.42a.992.992 0 0 1-1.002.981h-4.367a.992.992 0 0 0-1.002.981v4.126c0 .542.449.981 1.002.981h4.367a.992.992 0 0 1 1.002.981v18.877c.05 3.188 1.038 5.677 2.964 7.464Zm-97.35-1.087c3.31-2.899 4.964-6.522 4.964-10.87 0-2.658-.765-5.05-2.296-7.176-.705-1.01-1.717-2.295-4.687-3.923-.627-.345-.643-1.261-.05-1.659 3.553-2.381 5.329-5.987 5.329-10.217 0-4.01-1.506-7.271-4.519-9.783-3.063-2.61-6.842-3.914-11.337-3.914-3.605 0-6.742.942-9.409 2.827-2.377 1.679-4.146 3.818-5.307 6.418-.241.538.036 1.154.589 1.383l4.212 1.745c.597.247 1.278-.05 1.546-.627 1.659-3.579 4.449-5.368 8.369-5.368 2.668 0 4.816.676 6.447 2.029 1.63 1.353 2.445 3.116 2.445 5.29 0 2.368-.865 4.3-2.594 5.798-1.729 1.45-3.951 2.174-6.668 2.174h-2.725c-.623 0-1.128.495-1.128 1.104v4.025c0 .61.505 1.104 1.128 1.104h3.244c2.865 0 5.31.846 7.335 2.537 2.074 1.69 3.112 3.768 3.112 6.232 0 2.464-.988 4.566-2.964 6.305-2.025 1.691-4.421 2.537-7.187 2.537-2.519 0-4.693-.725-6.52-2.174-1.514-1.275-2.67-3.005-3.467-5.19-.228-.624-.937-.963-1.562-.709l-4.121 1.68c-.528.215-.812.785-.627 1.315 1.153 3.293 3.152 6 5.998 8.122 3.063 2.222 6.496 3.334 10.299 3.334 4.841 0 8.891-1.45 12.151-4.349Zm17.06-7.682c0-1.933.914-3.551 2.742-4.856 1.877-1.304 4.198-1.956 6.964-1.956 3.549 0 6.367.715 8.453 2.145a.97.97 0 0 1 .424.853c-.136 2.58-1.267 4.841-3.394 6.785-2.223 2.078-4.766 3.117-7.631 3.117-2.026 0-3.804-.58-5.335-1.74-1.482-1.16-2.223-2.609-2.223-4.348Zm20.746-21.814c-2.914-2.658-6.891-3.986-11.929-3.986-6.074 0-10.756 2.043-14.044 6.13-.354.44-.221 1.077.264 1.375l4.299 2.648c.454.28 1.05.157 1.386-.253 2.158-2.638 4.98-3.957 8.466-3.957 2.519 0 4.717.82 6.594 2.464 1.889 1.604 2.557 3.533 2.749 5.71.066.75-.77 1.234-1.479.944-2.345-.957-5.165-1.436-8.457-1.436-4.742 0-8.545 1.087-11.41 3.26-2.816 2.175-4.224 5.098-4.224 8.77 0 3.479 1.334 6.378 4.001 8.697 2.717 2.319 6.076 3.478 10.077 3.478 4.693 0 8.447-2.029 11.262-6.087v3.947c0 .542.449.98 1.003.98h4.811a.992.992 0 0 0 1.003-.98V39.48c0-4.59-1.458-8.19-4.372-10.798Zm43.92 31.643c0 .575-.477 1.042-1.066 1.042h-4.685a1.054 1.054 0 0 1-1.066-1.042V59.16c0-.75-1.162-1.11-1.709-.584-.859.827-1.894 1.564-3.107 2.211-2.124 1.16-4.346 1.74-6.668 1.74-4.446 0-7.879-1.233-10.299-3.697-2.371-2.512-3.556-6.063-3.556-10.653v-21.28c0-.575.477-1.042 1.065-1.042h4.685c.589 0 1.066.467 1.066 1.043v20.844c.148 5.798 3.137 8.697 8.965 8.697 2.717 0 4.989-1.063 6.817-3.189 1.828-2.174 2.741-4.76 2.741-7.755V26.898c0-.576.477-1.043 1.066-1.043h4.685c.589 0 1.066.467 1.066 1.043v33.427Zm35.214-49.87a.992.992 0 0 1 1.003-.981h4.811a.992.992 0 0 1 1.003.98v17.608c0 .75 1.158 1.108 1.701.578.846-.825 1.859-1.56 3.041-2.205 2.173-1.16 4.421-1.74 6.742-1.74 4.446 0 7.854 1.257 10.225 3.77 2.42 2.463 3.631 5.99 3.631 10.58v21.34a.992.992 0 0 1-1.003.982h-4.811a.992.992 0 0 1-1.003-.981V40.35c0-6.378-2.89-9.567-8.669-9.567-2.766 0-5.112 1.136-7.039 3.407-1.877 2.222-2.815 4.831-2.815 7.827v18.369a.992.992 0 0 1-1.003.98h-4.811a.992.992 0 0 1-1.003-.98V10.455Z" fill="#fff"/><path d="M60.419 55.738c.396 1.473 2.498 1.473 2.894 0l11.422-42.395c.526-1.952-.953-3.87-2.985-3.87h-7.042a3.088 3.088 0 0 0-2.985 2.279l-6.441 23.907c-.09.332-.09.68 0 1.013l5.137 19.066ZM20.5 35.628c.09.332.09.68 0 1.013l-5.137 19.066c-.396 1.472-2.498 1.472-2.894 0L1.055 13.343c-.526-1.952.953-3.87 2.985-3.87h7.042c1.399 0 2.623.935 2.985 2.279L20.5 35.628ZM30.129 65.057a2.983 2.983 0 0 1-2.883 2.206h-7.207c-1.962 0-3.39-1.856-2.883-3.747l13.869-51.629a3.263 3.263 0 0 1 3.153-2.413h8.382c1.477 0 2.77.99 3.153 2.413L59.58 63.516c.508 1.89-.92 3.747-2.883 3.747h-7.206a2.984 2.984 0 0 1-2.883-2.206L39.765 39.58c-.383-1.425-2.41-1.425-2.793 0L30.13 65.057Z" fill="#fff"/><path d="M35.838 59.684c-.516 0-.891-.462-.758-.934l2.531-8.937c.208-.733 1.308-.733 1.515 0l2.531 8.937c.134.472-.241.934-.757.934h-5.062Z" fill="#fff"/></svg>