<svg width="190" height="171" fill="none" xmlns="http://www.w3.org/2000/svg"><rect x="55" y="27.39" width="108.533" height="200.175" rx="10" fill="url('#paint0_radial_2563_8460')" fill-opacity=".67"/><g opacity=".7" filter="url('#filter0_b_2563_8460')"><path fill-rule="evenodd" clip-rule="evenodd" d="M83.033 31.7h-17.97a5.75 5.75 0 0 0-5.75 5.751v171.065a5.75 5.75 0 0 0 5.75 5.75h88.407a5.75 5.75 0 0 0 5.75-5.75V37.451a5.75 5.75 0 0 0-5.75-5.75h-17.969a5.75 5.75 0 0 1-5.749 5.654h-40.97a5.75 5.75 0 0 1-5.749-5.654Z" fill="url('#paint1_linear_2563_8460')"/></g><g filter="url('#filter1_bd_2563_8460')"><rect x="127" y="99.951" width="67.519" height="56.266" rx="5.195" fill="url('#paint2_linear_2563_8460')" shape-rendering="crispEdges"/><rect opacity=".5" x="133.002" y="105.953" width="29.528" height="6.384" rx="3.192" fill="url('#paint3_radial_2563_8460')"/><g clip-path="url('#clip0_2563_8460')"><path d="M157.667 127.241h6.18v-2.703h.772v3.089a.386.386 0 0 1-.386.387h-6.952a.383.383 0 0 1-.273-.114.382.382 0 0 1-.113-.273v-3.089h.772v2.703Zm3.476-3.862v2.703h-.772v-2.703h-1.932l2.318-2.317 2.317 2.317h-1.931Z" fill="#0364FF"/></g><rect x="133.19" y="115.526" width="55.14" height="17.255" rx="1.688" stroke="#1AC7FE" stroke-width=".375" stroke-dasharray="0.75 0.75"/><rect x="133.002" y="135.969" width="55.515" height="13.088" rx="6.544" fill="url('#paint4_radial_2563_8460')" opacity=".5"/></g><g filter="url('#filter2_bd_2563_8460')"><rect x="19" y="61.39" width="78.49" height="60.405" rx="6.04" fill="url('#paint5_linear_2563_8460')" shape-rendering="crispEdges"/><rect opacity=".5" x="25.977" y="68.367" width="50.098" height="7.422" rx="3.711" fill="url('#paint6_radial_2563_8460')"/><rect x="25.977" y="82.766" width="8.514" height="8.514" rx="1.174" fill="#0364FF"/><path d="m31.512 86.088-.344-.344a.146.146 0 0 0-.207 0l-.458.458-.283-.28-.207.207.208.208-1.309 1.31v.697h.697l1.31-1.31.208.21.207-.208-.282-.282.458-.458a.147.147 0 0 0 .002-.208Zm-2.024 1.963-.282-.282 1.183-1.184.282.282-1.183 1.183Z" fill="#FAFAFA"/><rect x="37.799" y="83.316" width="52.714" height="7.413" rx="3.706" fill="url('#paint7_linear_2563_8460')"/><rect x="37.799" y="83.316" width="52.714" height="7.413" rx="3.706" fill="#fff" fill-opacity=".3"/><g filter="url('#filter3_d_2563_8460')"><path d="M77.566 86.86a3.223 3.223 0 1 1-6.445 0 3.223 3.223 0 0 1 6.445 0Z" fill="#467CE4"/><path d="M74.344 90.405a3.545 3.545 0 1 0 0-7.09 3.545 3.545 0 0 0 0 7.09Z" stroke="#FAFAFA" stroke-width=".645"/></g><rect x="25.977" y="98.257" width="64.537" height="15.215" rx="7.608" fill="url('#paint8_radial_2563_8460')" opacity=".5"/></g><defs><radialGradient id="paint0_radial_2563_8460" cx="0" cy="0" r="1" gradientUnits="userSpaceOnUse" gradientTransform="rotate(-111.165 186.758 77.037) scale(296.402 251.698)"><stop stop-color="#DA8CFF"/><stop offset=".208" stop-color="#AF93FF" stop-opacity=".4"/><stop offset=".615" stop-color="#035FE9" stop-opacity=".36"/><stop offset=".888" stop-color="#5E8BFF" stop-opacity=".6"/></radialGradient><radialGradient id="paint3_radial_2563_8460" cx="0" cy="0" r="1" gradientUnits="userSpaceOnUse" gradientTransform="matrix(-29.11545 -8.81599 6.16704 -20.3671 167.649 113.978)"><stop stop-color="#DA8CFF"/><stop offset=".208" stop-color="#AF93FF" stop-opacity=".4"/><stop offset=".615" stop-color="#035FE9" stop-opacity=".36"/><stop offset=".888" stop-color="#5E8BFF" stop-opacity=".6"/></radialGradient><radialGradient id="paint4_radial_2563_8460" cx="0" cy="0" r="1" gradientUnits="userSpaceOnUse" gradientTransform="matrix(-54.73955 -18.07264 13.56992 -41.10143 198.141 152.421)"><stop stop-color="#DA8CFF"/><stop offset=".208" stop-color="#AF93FF" stop-opacity=".4"/><stop offset=".615" stop-color="#035FE9" stop-opacity=".36"/><stop offset=".888" stop-color="#5E8BFF" stop-opacity=".6"/></radialGradient><radialGradient id="paint6_radial_2563_8460" cx="0" cy="0" r="1" gradientUnits="userSpaceOnUse" gradientTransform="matrix(-49.39804 -10.24873 5.14137 -24.78097 84.76 77.696)"><stop stop-color="#DA8CFF"/><stop offset=".208" stop-color="#AF93FF" stop-opacity=".4"/><stop offset=".615" stop-color="#035FE9" stop-opacity=".36"/><stop offset=".888" stop-color="#5E8BFF" stop-opacity=".6"/></radialGradient><radialGradient id="paint8_radial_2563_8460" cx="0" cy="0" r="1" gradientUnits="userSpaceOnUse" gradientTransform="rotate(-161.729 60.289 50.514) scale(67.0133 50.3172)"><stop stop-color="#DA8CFF"/><stop offset=".208" stop-color="#AF93FF" stop-opacity=".4"/><stop offset=".615" stop-color="#035FE9" stop-opacity=".36"/><stop offset=".888" stop-color="#5E8BFF" stop-opacity=".6"/></radialGradient><linearGradient id="paint1_linear_2563_8460" x1="109.266" y1="31.701" x2="109.266" y2="214.266" gradientUnits="userSpaceOnUse"><stop stop-color="#fff"/><stop offset=".146" stop-color="#fff"/><stop offset=".834" stop-color="#fff" stop-opacity=".65"/></linearGradient><linearGradient id="paint2_linear_2563_8460" x1="204.387" y1="160.187" x2="169.936" y2="81.608" gradientUnits="userSpaceOnUse"><stop stop-color="#fff" stop-opacity=".37"/><stop offset=".963" stop-color="#fff"/></linearGradient><linearGradient id="paint5_linear_2563_8460" x1="108.963" y1="126.057" x2="72.225" y2="33.773" gradientUnits="userSpaceOnUse"><stop stop-color="#fff" stop-opacity=".42"/><stop offset="1" stop-color="#fff"/></linearGradient><linearGradient id="paint7_linear_2563_8460" x1="37.799" y1="83.316" x2="90.513" y2="83.316" gradientUnits="userSpaceOnUse"><stop stop-color="#00FFF0"/><stop offset=".755" stop-color="#0029FF"/><stop offset="1" stop-color="#8F00FF" stop-opacity=".785"/></linearGradient><filter id="filter0_b_2563_8460" x="53.142" y="25.53" width="112.25" height="194.907" filterUnits="userSpaceOnUse" color-interpolation-filters="sRGB"><feFlood flood-opacity="0" result="BackgroundImageFix"/><feGaussianBlur in="BackgroundImageFix" stdDeviation="3.085"/><feComposite in2="SourceAlpha" operator="in" result="effect1_backgroundBlur_2563_8460"/><feBlend in="SourceGraphic" in2="effect1_backgroundBlur_2563_8460" result="shape"/></filter><filter id="filter1_bd_2563_8460" x="110.674" y="86.891" width="100.171" height="88.917" filterUnits="userSpaceOnUse" color-interpolation-filters="sRGB"><feFlood flood-opacity="0" result="BackgroundImageFix"/><feGaussianBlur in="BackgroundImageFix" stdDeviation="1.596"/><feComposite in2="SourceAlpha" operator="in" result="effect1_backgroundBlur_2563_8460"/><feColorMatrix in="SourceAlpha" values="0 0 0 0 0 0 0 0 0 0 0 0 0 0 0 0 0 0 127 0" result="hardAlpha"/><feOffset dy="3.265"/><feGaussianBlur stdDeviation="8.163"/><feComposite in2="hardAlpha" operator="out"/><feColorMatrix values="0 0 0 0 0 0 0 0 0 0 0 0 0 0 0 0 0 0 0.1 0"/><feBlend in2="effect1_backgroundBlur_2563_8460" result="effect2_dropShadow_2563_8460"/><feBlend in="SourceGraphic" in2="effect2_dropShadow_2563_8460" result="shape"/></filter><filter id="filter2_bd_2563_8460" x=".021" y="46.207" width="116.447" height="98.362" filterUnits="userSpaceOnUse" color-interpolation-filters="sRGB"><feFlood flood-opacity="0" result="BackgroundImageFix"/><feGaussianBlur in="BackgroundImageFix" stdDeviation="1"/><feComposite in2="SourceAlpha" operator="in" result="effect1_backgroundBlur_2563_8460"/><feColorMatrix in="SourceAlpha" values="0 0 0 0 0 0 0 0 0 0 0 0 0 0 0 0 0 0 127 0" result="hardAlpha"/><feOffset dy="3.796"/><feGaussianBlur stdDeviation="9.489"/><feComposite in2="hardAlpha" operator="out"/><feColorMatrix values="0 0 0 0 0 0 0 0 0 0 0 0 0 0 0 0 0 0 0.1 0"/><feBlend in2="effect1_backgroundBlur_2563_8460" result="effect2_dropShadow_2563_8460"/><feBlend in="SourceGraphic" in2="effect2_dropShadow_2563_8460" result="shape"/></filter><filter id="filter3_d_2563_8460" x="67.254" y="79.77" width="14.179" height="14.179" filterUnits="userSpaceOnUse" color-interpolation-filters="sRGB"><feFlood flood-opacity="0" result="BackgroundImageFix"/><feColorMatrix in="SourceAlpha" values="0 0 0 0 0 0 0 0 0 0 0 0 0 0 0 0 0 0 127 0" result="hardAlpha"/><feOffset/><feGaussianBlur stdDeviation="1.611"/><feComposite in2="hardAlpha" operator="out"/><feColorMatrix values="0 0 0 0 0 0 0 0 0 0 0 0 0 0 0 0 0 0 0.7 0"/><feBlend in2="BackgroundImageFix" result="effect1_dropShadow_2563_8460"/><feBlend in="SourceGraphic" in2="effect1_dropShadow_2563_8460" result="shape"/></filter><clipPath id="clip0_2563_8460"><path fill="#fff" transform="translate(156.125 119.903)" d="M0 0h9.269v9.269H0z"/></clipPath></defs></svg>