<svg width="30" height="31" fill="none" xmlns="http://www.w3.org/2000/svg"><path d="M29.701 9.163s-.293-2.068-1.195-2.976c-1.143-1.196-2.42-1.202-3.006-1.272-4.195-.305-10.494-.305-10.494-.305h-.012s-6.299 0-10.494.305c-.586.07-1.863.076-3.006 1.272-.902.908-1.19 2.976-1.19 2.976S0 11.595 0 14.02v2.274c0 2.426.299 4.857.299 4.857s.293 2.069 1.19 2.977c1.142 1.195 2.642 1.154 3.31 1.283C7.2 25.64 15 25.71 15 25.71s6.305-.012 10.5-.31c.586-.07 1.863-.077 3.006-1.272.902-.908 1.195-2.977 1.195-2.977S30 18.726 30 16.294V14.02c0-2.425-.299-4.857-.299-4.857Zm-17.8 9.89v-8.43l8.103 4.23-8.104 4.2Z" fill="#fff"/></svg>